<svg xmlns="http://www.w3.org/2000/svg" width="18" height="18" viewBox="0 0 18 18">
    <path fill="#FFF" fill-rule="evenodd" d="M16 6.241a1.76 1.76 0 0 1-1.5 1.74V4H16v2.241zM9 12c-1.93 0-3.5-1.57-3.5-3.5V2h7v6.5c0 1.93-1.57 3.5-3.5 3.5zM2 6.241V4h1.5v3.981A1.76 1.76 0 0 1 2 6.241zM17 2h-2.5V1a1 1 0 0 0-1-1h-9a1 1 0 0 0-1 1v1H1a1 1 0 0 0-1 1v3.241a3.761 3.761 0 0 0 3.712 3.756A5.511 5.511 0 0 0 8 13.904V16H4.5a1 1 0 0 0 0 2h9a1 1 0 0 0 0-2H10v-2.096a5.511 5.511 0 0 0 4.288-3.907A3.761 3.761 0 0 0 18 6.241V3a1 1 0 0 0-1-1z" />
</svg>
