<?xml version="1.0" encoding="UTF-8"?>
<svg width="17px" height="19px" viewBox="0 0 17 19" version="1.1" xmlns="http://www.w3.org/2000/svg" xmlns:xlink="http://www.w3.org/1999/xlink">
    <!-- Generator: sketchtool 47.1 (45422) - http://www.bohemiancoding.com/sketch -->
    <title>CD6D98C0-EFAC-4507-9A02-D0D54B5457C4</title>
    <desc>Created with sketchtool.</desc>
    <defs></defs>
    <g id="Symbols" stroke="none" stroke-width="1" fill="none" fill-rule="evenodd">
        <g id="Icons-SVG" transform="translate(-31.000000, -162.000000)" fill="#ffffff">
            <g id="entertainment_icn" transform="translate(27.000000, 159.000000)">
                <path d="M13.8169985,16.8177606 C17.5952442,16.8177606 20.3000584,20.6537094 20.4132735,20.8168364 C20.6073679,21.0974625 20.5431792,21.4855667 20.2680043,21.6839722 C19.9952827,21.883117 19.6127244,21.8200346 19.41863,21.5365747 C19.3936945,21.5026515 16.9604758,18.0630619 13.8170387,18.0630619 C12.4533101,18.0630619 11.429669,18.9763596 10.3464242,19.9433759 C9.25240077,20.9201255 8.04226657,22 6.42005372,22 C6.00427495,22 5.56187154,21.9294841 5.08717269,21.7677124 L4.94121978,21.6948966 C4.20099844,21.1888826 4.02230768,20.5845488 4.00203756,20.16593 C3.94545015,18.9752918 5.0852422,17.9852768 5.21571098,17.8758273 C5.23952033,17.8562373 5.2681559,17.8490091 5.29377508,17.8330742 C5.21100542,17.4342098 5.29912414,17.0050363 5.60285418,16.6949225 L12.4300638,8.22410499 C12.7208033,8.92334981 13.1411267,9.59166949 13.7119075,10.1742777 C14.2817634,10.756968 14.9355149,11.1874557 15.621562,11.4848381 L7.3269807,18.4571623 C6.98443981,18.8060044 6.49321115,18.8938104 6.06564837,18.7418132 C6.04047159,18.7745865 6.02217218,18.8110149 5.98999738,18.8378331 C5.72910003,19.0592373 5.19789419,19.6599571 5.22057742,20.1076939 C5.22415687,20.1745546 5.23364843,20.3714405 5.55402894,20.6123526 C7.17326563,21.1219808 8.27384465,20.1391118 9.54358265,19.0055598 C10.6928663,17.9802664 11.9953421,16.8177606 13.8169985,16.8177606 Z M14.6318408,9.87012552 C12.8274226,8.46035957 12.4069564,5.98343064 13.6927031,4.33774992 C14.9784497,2.69206919 17.4835233,2.50082249 19.2879414,3.91058845 C21.0923596,5.3203544 21.5128259,7.79728333 20.2270792,9.44296406 C18.9413325,11.0886448 16.4362589,11.2798915 14.6318408,9.87012552 Z"></path>
            </g>
        </g>
    </g>
</svg>