<?xml version="1.0" encoding="UTF-8"?>
<svg width="17px" height="18px" viewBox="0 0 17 18" version="1.1" xmlns="http://www.w3.org/2000/svg" xmlns:xlink="http://www.w3.org/1999/xlink">
    <!-- Generator: sketchtool 47.1 (45422) - http://www.bohemiancoding.com/sketch -->
    <title>5AF0B320-BCEA-43F2-BCE1-84FA41F8A6E4</title>
    <desc>Created with sketchtool.</desc>
    <defs></defs>
    <g id="Symbols" stroke="none" stroke-width="1" fill="none" fill-rule="evenodd">
        <g id="Icons-SVG" transform="translate(-30.000000, -105.000000)" fill="#ffffff">
            <g id="i_care_icn" transform="translate(27.000000, 102.000000)">
                <path d="M18.3983658,18.9899115 C17.0581582,20.431476 14.8408515,20.8854571 13.1161237,21 C14.6808686,19.0485799 16.6217137,15.9768741 17.0343011,12.3911221 C18.1303242,12.1913705 19.18565,12.1606395 19.9266233,12.1801956 C20.1202868,14.0617725 20.0473122,17.2144964 18.3983658,18.9899115 M3.08070582,12.1690206 C3.89184713,12.1466708 4.92892919,12.2109266 5.98004484,12.4120751 C6.40105244,15.9866522 8.33768741,19.0457861 9.9038357,20.9930157 C8.17630117,20.8798696 5.95057431,20.431476 4.60475334,18.9829272 C2.84774828,17.0929691 2.91089942,13.828496 3.08070582,12.1690206 M11.5036646,3 C12.8986031,4.16219153 15.7109339,7.00481142 15.715144,11.0194009 C15.719354,15.0116405 12.9940315,18.5652646 11.5106814,20.2037871 C10.0245245,18.5736458 7.29779864,15.0367841 7.29499192,11.0263852 C7.29078184,7.01039888 10.1101294,4.16219153 11.5036646,3"></path>
            </g>
        </g>
    </g>
</svg>