<?xml version="1.0" encoding="UTF-8"?>
<svg width="94px" height="94px" viewBox="0 0 94 94" version="1.1" xmlns="http://www.w3.org/2000/svg" xmlns:xlink="http://www.w3.org/1999/xlink">
    <!-- Generator: Sketch 47.1 (45422) - http://www.bohemiancoding.com/sketch -->
    <title>001-exclamation-mark</title>
    <desc>Created with Sketch.</desc>
    <defs></defs>
    <g id="Profile" stroke="none" stroke-width="1" fill="none" fill-rule="evenodd" opacity="0.400079257">
        <g id="UС_07-Profile(Private)-992px" transform="translate(-570.000000, -245.000000)">
            <g id="Allert" transform="translate(291.000000, 218.000000)">
                <g id="001-exclamation-mark" transform="translate(281.000000, 29.000000)">
                    <path d="M45.0397263,0 C45.0278084,0 45.0119179,0.00198802766 45,0.00198802766 C44.9860958,0.00198802766 44.9741779,0 44.9602737,0 C20.1313176,0 0,20.1466723 0,45.000994 C0,69.8513397 20.1313176,90 44.9602737,90 C44.9741779,90 44.9860958,90 45,90 C45.0119179,90 45.0278084,90 45.0397263,90 C69.8686824,90 90,69.8513397 90,45.000994 C90.0019863,20.1466723 69.8706687,0 45.0397263,0 Z" id="Shape" stroke="#ECF4FE" stroke-width="3" fill-rule="nonzero"></path>
                    <path d="M46.0314052,71 C46.021742,71 46.0088579,70.9983801 45.9991947,70.9983801 C45.9879211,70.9983801 45.978258,71 45.9669843,71 C42.6718561,71 40,68.3142549 40,64.9983801 C40,61.6857451 42.6718561,59 45.9669843,59 C45.978258,59 45.9879211,59 45.9991947,59 C46.0088579,59 46.021742,59 46.0314052,59 C49.3249228,59 52,61.6857451 52,64.9983801 C52,68.312635 49.3297544,71 46.0314052,71 Z" id="Path" fill="#ECF4FE"></path>
                    <path d="M53.9887562,25.6109016 C53.6035511,31.6310422 50.9134824,49.5351388 50.9134824,49.5351388 C50.9134824,52.5541652 48.4956041,55 45.5444874,55 C45.5285698,55 45.5126522,55 45.4983264,55 C45.4840006,55 45.4664913,55 45.4521655,55 C42.5026405,55 40.0847622,52.5509085 40.0847622,49.5351388 C40.0847622,49.5351388 37.3962853,31.6310422 37.0110802,25.6109016 C36.8200694,22.5967604 39.0771803,17 45.4537572,17 C45.4696748,17 45.4855924,17.0016284 45.4999182,17.0016284 C45.514244,17.0016284 45.5301616,17 45.5460791,17 C51.9210643,17 54.1813587,22.5967604 53.9887562,25.6109016 Z" id="Path" fill="#ECF4FE"></path>
                </g>
            </g>
        </g>
    </g>
</svg>