<?xml version="1.0" encoding="UTF-8"?>
<svg width="16px" height="19px" viewBox="0 0 16 19" version="1.1" xmlns="http://www.w3.org/2000/svg" xmlns:xlink="http://www.w3.org/1999/xlink">
    <!-- Generator: Sketch 47.1 (45422) - http://www.bohemiancoding.com/sketch -->
    <title>Combined Shape</title>
    <desc>Created with Sketch.</desc>
    <defs></defs>
    <g id="Userpick-Dropdown-menu" stroke="none" stroke-width="1" fill="none" fill-rule="evenodd" >
        <g id="UĞ¡_02-Feed-(Userpick-dropdown)-544" transform="translate(-16.000000, -156.000000)" fill="#ECF4FE">
            <path d="M16.8602672,156 L31.1397328,156 L31.1397328,156 C31.6148453,156 32,156.385155 32,156.860267 L32,174.135691 L32,174.135691 C32,174.610804 31.6148453,174.995958 31.1397328,174.995958 C31.0119501,174.995958 30.8857722,174.967492 30.7703674,174.912627 L24,171.693905 L17.2296326,174.912627 L17.2296326,174.912627 C16.8005429,175.116622 16.2873265,174.934146 16.0833316,174.505056 C16.0284667,174.389652 16,174.263474 16,174.135691 L16,156.860267 L16,156.860267 C16,156.385155 16.3851547,156 16.8602672,156 L16.8602672,156 Z M24.6577784,159.132186 C24.4123672,158.487197 23.553428,158.487197 23.3693696,159.132186 L22.5717831,161.712142 C22.4490775,161.970137 22.2036663,162.163634 21.9582551,162.163634 L19.3814375,162.163634 C18.7065567,162.163634 18.3997926,163.066619 18.9519679,163.453612 L21.0379631,165.066085 C21.2833743,165.195082 21.3447271,165.517577 21.2833743,165.775572 L20.4857879,168.355528 C20.3017295,169.000517 20.9766103,169.516509 21.5287855,169.129515 L23.6761336,167.517043 C23.9215448,167.323546 24.166956,167.323546 24.4123672,167.517043 L26.4983624,169.129515 C27.0505376,169.581007 27.7254185,169.000517 27.5413601,168.355528 L26.7437736,165.775572 C26.6824208,165.517577 26.7437736,165.259581 26.9891848,165.066085 L29.0751801,163.453612 C29.5660025,163.066619 29.3205913,162.163634 28.6457105,162.163634 L26.0688928,162.163634 C25.7621288,162.163634 25.5167176,161.970137 25.4553648,161.712142 L24.6577784,159.132186 Z" id="Combined-Shape"></path>
        </g>
    </g>
</svg>