<?xml version="1.0" encoding="UTF-8"?>
<svg width="76px" height="90px" viewBox="0 0 76 90" version="1.1" xmlns="http://www.w3.org/2000/svg" xmlns:xlink="http://www.w3.org/1999/xlink">
    <!-- Generator: Sketch 47.1 (45422) - http://www.bohemiancoding.com/sketch -->
    <title>Combined Shape</title>
    <desc>Created with Sketch.</desc>
    <defs></defs>
    <g id="Profile" stroke="none" stroke-width="1" fill="none" fill-rule="evenodd">
        <g id="UĞ¡_13-Settings---Credits" transform="translate(-828.000000, -242.000000)" fill="#ECF4FE">
            <path d="M832.07495,242 L899.92505,242 L899.92505,242 C902.175583,242 904,243.824417 904,246.07495 L904,327.913573 C904,330.164106 902.175583,331.988523 899.92505,331.988523 C899.321241,331.988523 898.724979,331.854338 898.179381,331.595672 L866,316.33955 L833.820619,331.595672 L833.820619,331.595672 C831.787052,332.559779 829.356957,331.69281 828.392851,329.659242 C828.134185,329.113645 828,328.517382 828,327.913573 L828,246.07495 L828,246.07495 C828,243.824417 829.824417,242 832.07495,242 L832.07495,242 Z M869.124447,256.83667 C867.958744,253.781459 863.878783,253.781459 863.004505,256.83667 L859.21597,269.057514 C858.633118,270.279598 857.467415,271.196162 856.301712,271.196162 L844.061828,271.196162 C840.856144,271.196162 839.399015,275.473457 842.021847,277.306584 L851.930325,284.944611 C853.096028,285.555653 853.387454,287.083259 853.096028,288.305343 L849.307492,300.526187 C848.433215,303.581398 851.638899,306.025567 854.261731,304.19244 L864.461634,296.554413 C865.627338,295.63785 866.793041,295.63785 867.958744,296.554413 L877.867222,304.19244 C880.490054,306.331088 883.695738,303.581398 882.82146,300.526187 L879.032925,288.305343 C878.741499,287.083259 879.032925,285.861174 880.198628,284.944611 L890.107105,277.306584 C892.438512,275.473457 891.272809,271.196162 888.067125,271.196162 L875.827241,271.196162 C874.370112,271.196162 873.204409,270.279598 872.912983,269.057514 L869.124447,256.83667 Z" id="Combined-Shape"></path>
        </g>
    </g>
</svg>