<?xml version="1.0" encoding="UTF-8"?>
<svg width="18px" height="18px" viewBox="0 0 18 18" version="1.1" xmlns="http://www.w3.org/2000/svg" xmlns:xlink="http://www.w3.org/1999/xlink">
    <!-- Generator: Sketch 47.1 (45422) - http://www.bohemiancoding.com/sketch -->
    <title>Combined Shape</title>
    <desc>Created with Sketch.</desc>
    <defs></defs>
    <g id="Userpick-Dropdown-menu" stroke="none" stroke-width="1" fill="none" fill-rule="evenodd">
        <g id="UĞ¡_02-Feed-(Userpick-dropdown)-768" transform="translate(-24.000000, -355.000000)" fill="#fff">
            <g id="DD-Menu" transform="translate(0.000000, 83.000000)">
                <g id="Logout" transform="translate(0.000000, 255.000000)">
                    <g id="Group-2" transform="translate(24.000000, 17.000000)">
                        <path d="M3.03846154,2.5 L3.03846154,15.5 L13.2884615,15.5 C13.9788175,15.5 14.5384615,16.0596441 14.5384615,16.75 C14.5384615,17.4403559 13.9788175,18 13.2884615,18 L1.78846154,18 C1.44328357,18 1.13078357,17.860089 0.904578062,17.6338835 C0.678372554,17.407678 0.538461538,17.095178 0.538461538,16.75 L0.538461538,1.25 L0.538461538,1.25 C0.538461538,0.904822031 0.678372554,0.592322031 0.904578062,0.366116524 C1.13078357,0.139911016 1.44328357,6.34081642e-17 1.78846154,0 L1.78846154,0 L13.2884615,0 C13.9788175,-1.26816328e-16 14.5384615,0.559644063 14.5384615,1.25 L14.5384615,1.25 C14.5384615,1.94035594 13.9788175,2.5 13.2884615,2.5 L3.03846154,2.5 Z M12.9125068,12.5575053 C12.4736779,12.1615972 12.4736779,11.5202545 12.9125068,11.1243463 L14.1397328,10.0186061 L8.66809084,10.0186061 C8.0442138,10.0186061 7.53846154,9.5629194 7.53846154,9.00080131 C7.53846154,8.43868323 8.0442138,7.98299648 8.66809084,7.98299648 L14.1397328,7.98299648 L12.9125068,6.87164342 C12.5898712,6.58164963 12.4936448,6.14476997 12.6689232,5.76574459 C12.8442016,5.38671921 13.2562514,5.14065658 13.7119687,5.14287198 C14.0112305,5.14285856 14.2984524,5.24906296 14.5114306,5.43848441 L17.6719008,8.2898347 C17.8830961,8.48115532 18.0011394,8.74031871 17.9999917,9.01015613 C17.9969592,9.27924459 17.879537,9.53704421 17.6719008,9.73047757 L14.5135072,12.5780859 C14.0595575,12.9579829 13.354243,12.9489161 12.9125068,12.5575053 Z" id="Combined-Shape" transform="translate(9.269231, 9.000000) scale(-1, 1) translate(-9.269231, -9.000000) "></path>
                    </g>
                </g>
            </g>
        </g>
    </g>
</svg>