<?xml version="1.0" encoding="utf-8"?>
<!-- Generator: Adobe Illustrator 22.0.1, SVG Export Plug-In . SVG Version: 6.00 Build 0)  -->
<svg version="1.1" id="Layer_1" xmlns="http://www.w3.org/2000/svg" xmlns:xlink="http://www.w3.org/1999/xlink" x="0px" y="0px"
	 viewBox="0 0 19 19" style="enable-background:new 0 0 19 19;" xml:space="preserve">
<style type="text/css">
	.st0{fill:#FFFFFF;}
</style>
<path class="st0" d="M9,3.3c2.5,0,4.5,2,4.5,4.5v4.5h-9V7.8C4.5,5.3,6.5,3.3,9,3.3 M15.8,12.3V7.8C15.8,4,12.7,1,9,1S2.3,4,2.3,7.8
	v4.5H1.1c-0.6,0-1.1,0.5-1.1,1.1s0.5,1.1,1.1,1.1h15.8c0.6,0,1.1-0.5,1.1-1.1s-0.5-1.1-1.1-1.1H15.8z M9,19c-1.2,0-2.3-1-2.3-2.3
	v-1.1h4.5v1.1C11.3,18,10.2,19,9,19z"/>
</svg>
