<?xml version="1.0" encoding="UTF-8"?>
<svg width="18px" height="18px" viewBox="0 0 18 18" version="1.1" xmlns="http://www.w3.org/2000/svg" xmlns:xlink="http://www.w3.org/1999/xlink">
    <!-- Generator: Sketch 47.1 (45422) - http://www.bohemiancoding.com/sketch -->
    <title>profile_icn</title>
    <desc>Created with Sketch.</desc>
    <defs></defs>
    <g id="Userpick-Dropdown-menu" stroke="none" stroke-width="1" fill="none" fill-rule="evenodd">
        <g id="UС_02-Feed-(Userpick-dropdown)-768" transform="translate(-24.000000, -100.000000)" fill="#FFFFFF">
            <g id="DD-Menu" transform="translate(0.000000, 83.000000)">
                <g id="User-Profile">
                    <path d="M38.30325,24.4851875 L38.30325,24.4851875 C38.508,23.9024375 38.625,23.2780625 38.625,22.625 C38.625,19.5183125 36.1066875,17 33,17 C29.8933125,17 27.375,19.5183125 27.375,22.625 C27.375,23.2780625 27.492,23.9024375 27.69675,24.4851875 L27.6961875,24.4851875 C25.5046875,25.6000625 24,27.870875 24,30.4983125 L24,33.8733125 C24,34.4954375 24.5045625,35 25.1266875,35 L40.8733125,35 C41.4954375,35 42,34.4954375 42,33.8733125 L42,30.4983125 C42,27.870875 40.4953125,25.6000625 38.30325,24.4851875 L38.30325,24.4851875 Z M33,19.25 C34.86075,19.25 36.375,20.76425 36.375,22.625 C36.375,24.48575 34.86075,26 33,26 C31.13925,26 29.625,24.48575 29.625,22.625 C29.625,20.76425 31.13925,19.25 33,19.25 L33,19.25 Z M39.75,32.75 L26.25,32.75 L26.25,30.4983125 C26.25,28.6938125 27.321,27.1379375 28.8583125,26.421875 C29.8865625,27.5429375 31.3591875,28.25 33,28.25 C34.6408125,28.25 36.1134375,27.5429375 37.1416875,26.421875 C38.679,27.1379375 39.75,28.6938125 39.75,30.4983125 L39.75,32.75 L39.75,32.75 Z" id="profile_icn"></path>
                </g>
            </g>
        </g>
    </g>
</svg>