<svg xmlns="http://www.w3.org/2000/svg" width="18" height="18" viewBox="0 0 18 18">
    <path fill="#ECF4FE" fill-opacity=".5" fill-rule="evenodd" d="M7.702 2.571a5.145 5.145 0 0 1 5.135 5.143 5.107 5.107 0 0 1-.95 2.97l-.507.714-.713.508c-.875.622-1.9.951-2.965.951a5.145 5.145 0 0 1-5.135-5.143 5.145 5.145 0 0 1 5.135-5.143m0-2.571C3.449 0 0 3.454 0 7.714s3.449 7.715 7.702 7.715c1.66 0 3.194-.532 4.452-1.427l3.617 3.623a1.276 1.276 0 0 0 1.808 0l.018-.018c.499-.5.575-1.334 0-1.811l-3.617-3.623a7.68 7.68 0 0 0 1.424-4.459C15.404 3.454 11.955 0 7.702 0" opacity=".398"/>
</svg>
