<svg xmlns="http://www.w3.org/2000/svg" width="18" height="18" viewBox="0 0 18 18">
    <path fill="#FFF" fill-rule="evenodd" d="M17.06 7.718l-1.49-.248a6.706 6.706 0 0 0-.858-2.055l.83-1.162a1.114 1.114 0 0 0-.118-1.435l-.241-.242a1.115 1.115 0 0 0-1.436-.118l-1.162.83a6.706 6.706 0 0 0-2.055-.857L10.282.94c-.09-.542-.56-.94-1.11-.94h-.344c-.55 0-1.02.398-1.11.94L7.47 2.43a6.706 6.706 0 0 0-2.055.858l-1.162-.83a1.114 1.114 0 0 0-1.435.118l-.242.242a1.115 1.115 0 0 0-.118 1.435l.83 1.162A6.706 6.706 0 0 0 2.43 7.47L.94 7.718c-.542.09-.94.56-.94 1.11v.344c0 .55.398 1.02.94 1.11l1.49.248c.173.74.465 1.431.858 2.055l-.83 1.162a1.114 1.114 0 0 0 .118 1.435l.242.242c.384.385.992.435 1.435.118l1.162-.83a6.706 6.706 0 0 0 2.055.857l.248 1.491c.09.542.56.94 1.11.94h.344c.55 0 1.02-.398 1.11-.94l.248-1.49a6.706 6.706 0 0 0 2.055-.858l1.162.83c.443.317 1.05.267 1.436-.118l.24-.242c.386-.384.436-.992.12-1.435l-.83-1.162a6.706 6.706 0 0 0 .856-2.055l1.491-.248c.542-.09.94-.56.94-1.11v-.344c0-.55-.398-1.02-.94-1.11zM9 12.375a3.375 3.375 0 1 1 0-6.75 3.375 3.375 0 0 1 0 6.75z" />
</svg>
