<svg xmlns="http://www.w3.org/2000/svg" width="18" height="18" viewBox="0 0 18 18">
    <path fill="#EFC677" fill-rule="evenodd" d="M16.96 10c.666 0 1.174.61 1.008 1.238C16.942 15.121 13.311 18 9 18S1.058 15.121.032 11.238C-.133 10.61.374 10 1.041 10c.459 0 .872.294.987.727.592 2.261 2.32 4.077 4.556 4.853.673.234 1.387-.242 1.387-.938a.982.982 0 0 0-.67-.928c-2.267-.773-3.814-3.044-3.37-5.585.347-1.99 1.972-3.628 4.009-4.025 2.31-.452 4.428.614 5.49 2.355A1.012 1.012 0 0 1 12.548 8h-.001c-.363 0-.701-.185-.882-.49-.68-1.15-2.109-1.826-3.646-1.362-.916.277-1.663.999-1.95 1.888C5.4 10.098 6.975 12 8.999 12a3.087 3.087 0 0 0 2.658-1.495c.185-.31.52-.505.89-.505.807 0 1.299.855.889 1.53a5.117 5.117 0 0 1-2.742 2.18.98.98 0 0 0-.665.927v.005c0 .696.713 1.172 1.387.938 2.236-.776 3.964-2.592 4.557-4.853.113-.433.527-.727.987-.727zM9 2C5.642 2 2.82 4.247 2.027 7.273 1.914 7.706 1.5 8 1.04 8 .374 8-.134 7.39.032 6.762 1.058 2.879 4.688 0 9 0s7.942 2.879 8.968 6.762C18.134 7.39 17.626 8 16.96 8c-.46 0-.874-.294-.987-.727C15.18 4.247 12.358 2 9 2z"/>
</svg>
