<svg xmlns="http://www.w3.org/2000/svg" width="18" height="19" viewBox="0 0 18 19">
    <path fill="#FFF" fill-rule="evenodd" d="M16.96 10.058c.666 0 1.174.61 1.008 1.238-1.026 3.883-4.657 6.762-8.968 6.762s-7.942-2.88-8.968-6.762c-.165-.628.342-1.238 1.009-1.238.459 0 .872.294.987.727.592 2.26 2.32 4.077 4.556 4.853.673.234 1.387-.242 1.387-.938a.982.982 0 0 0-.67-.928c-2.267-.773-3.814-3.044-3.37-5.585.347-1.99 1.972-3.628 4.009-4.025 2.31-.452 4.428.614 5.49 2.355a1.012 1.012 0 0 1-.882 1.54h-.001c-.363 0-.701-.184-.882-.49-.68-1.15-2.109-1.825-3.646-1.361-.916.277-1.663.999-1.95 1.888-.668 2.062.906 3.964 2.93 3.964a3.087 3.087 0 0 0 2.658-1.495c.185-.31.52-.505.89-.505.807 0 1.299.855.889 1.53a5.117 5.117 0 0 1-2.742 2.18.98.98 0 0 0-.665.927v.005c0 .696.713 1.172 1.387.938 2.236-.776 3.964-2.592 4.557-4.853.113-.433.527-.727.987-.727zm-7.96-8c-3.358 0-6.18 2.247-6.973 5.273-.113.433-.527.727-.987.727-.666 0-1.174-.61-1.008-1.238C1.058 2.937 4.688.058 9 .058s7.942 2.879 8.968 6.762c.166.628-.342 1.238-1.008 1.238-.46 0-.874-.294-.987-.727C15.18 4.305 12.358 2.058 9 2.058z" opacity=".5"/>
</svg>
