<svg xmlns="http://www.w3.org/2000/svg" width="16" height="18" viewBox="0 0 16 18">
    <path fill="#EFC677" fill-rule="evenodd" d="M8.018 2.25c3.14 0 5.696 2.523 5.696 5.625S11.16 13.5 8.034 13.5l-.068-.004a5.219 5.219 0 0 0-.188-.01l-.384-.016-4.188 1.235.719-2.792-.59-.841A5.538 5.538 0 0 1 2.32 7.875c0-3.102 2.556-5.625 5.697-5.625m0-2.25C3.609 0 .035 3.526.035 7.875c0 1.663.527 3.204 1.419 4.476L0 18l7.682-2.267c.112.005.223.017.336.017 4.408 0 7.982-3.526 7.982-7.875C16 3.525 12.426 0 8.018 0"/>
</svg>
