<?xml version="1.0" encoding="UTF-8"?>
<svg width="19px" height="17px" viewBox="0 0 19 17" version="1.1" xmlns="http://www.w3.org/2000/svg" xmlns:xlink="http://www.w3.org/1999/xlink">
    <!-- Generator: Sketch 47.1 (45422) - http://www.bohemiancoding.com/sketch -->
    <title>like_0_icn</title>
    <desc>Created with Sketch.</desc>
    <defs></defs>
    <g id="STYLES" stroke="none" stroke-width="1" fill="none" fill-rule="evenodd">
        <g id="Icons" transform="translate(-381.000000, -355.000000)" stroke="#EFC677" stroke-width="2" fill-rule="nonzero">
            <path d="M389.509056,369.524963 C388.437958,368.979101 387.366881,368.334965 386.372106,367.599793 C383.616337,365.563185 382,363.256268 382,360.74721 C382,358.099911 383.962909,356 386.316406,356 C387.524965,356 388.752468,356.711507 389.636169,357.880999 L390.5,359.024196 L391.363831,357.880999 C392.247532,356.711507 393.475035,356 394.683594,356 C397.037091,356 399,358.099911 399,360.74721 C399,363.256268 397.383663,365.563185 394.627894,367.599793 C393.633119,368.334965 392.562042,368.979101 391.490944,369.524963 C391.132533,369.70762 390.799446,369.866156 390.5,370 C390.200554,369.866156 389.867467,369.70762 389.509056,369.524963 Z" id="like_0_icn"></path>
        </g>
    </g>
</svg>