<?xml version="1.0" encoding="UTF-8"?>
<svg width="61px" height="61px" viewBox="0 0 61 61" version="1.1" xmlns="http://www.w3.org/2000/svg" xmlns:xlink="http://www.w3.org/1999/xlink">
    <!-- Generator: Sketch 47.1 (45422) - http://www.bohemiancoding.com/sketch -->
    <title>done_icn</title>
    <desc>Created with Sketch.</desc>
    <defs></defs>
    <g id="Post-DD-Menu-+-Report+Delete" stroke="none" stroke-width="1" fill="none" fill-rule="evenodd">
        <g id="UС_02-Feed---Popup---Download-App-992px" transform="translate(-465.000000, -325.000000)">
            <g id="done_icn" transform="translate(465.000000, 325.000000)">
                <circle id="check_box_filled" fill="#E95F3A" cx="30.5" cy="30.5" r="30.5"></circle>
                <path d="M30.026171,52 C30.0181184,52 30.0073816,51.9986501 29.9993289,51.9986501 C29.9899342,51.9986501 29.9818816,52 29.9724869,52 C27.2265468,52 25,49.761879 25,46.9986501 C25,44.238121 27.2265468,42 29.9724869,42 C29.9818816,42 29.9899342,42 29.9993289,42 C30.0073816,42 30.0181184,42 30.026171,42 C32.770769,42 35,44.238121 35,46.9986501 C35,49.7605292 32.7747953,52 30.026171,52 Z" id="Path" fill="#ECF4FE"></path>
                <path d="M36.9907404,14.7980802 C36.6735127,19.5508228 34.458162,33.6856359 34.458162,33.6856359 C34.458162,36.0690778 32.4669681,38 30.0366367,38 C30.0235281,38 30.0104195,38 29.9986218,38 C29.986824,38 29.9724046,38 29.9606069,38 C27.5315863,38 25.5403924,36.0665067 25.5403924,33.6856359 C25.5403924,33.6856359 23.3263526,19.5508228 23.0091249,14.7980802 C22.8518219,12.418495 24.710619,8 29.9619177,8 C29.9750263,8 29.9881349,8.00128557 29.9999326,8.00128557 C30.0117303,8.00128557 30.0248389,8 30.0379475,8 C35.2879353,8 37.1493542,12.418495 36.9907404,14.7980802 Z" id="Path" fill="#ECF4FE"></path>
            </g>
        </g>
    </g>
</svg>