<svg xmlns="http://www.w3.org/2000/svg" width="36" height="36" viewBox="0 0 36 36">
    <path fill="#EFC677" fill-rule="evenodd" d="M32 12.483a3.522 3.522 0 0 1-3 3.479V8h3v4.483zM18 24c-3.86 0-7-3.14-7-7V4h14v13c0 3.86-3.14 7-7 7zM4 12.483V8h3v7.962a3.522 3.522 0 0 1-3-3.479zM34 4h-5V2a2 2 0 0 0-2-2H9a2 2 0 0 0-2 2v2H2a2 2 0 0 0-2 2v6.483c0 4.114 3.323 7.462 7.425 7.512A11.022 11.022 0 0 0 16 27.809V32H9a2 2 0 0 0 0 4h18a2 2 0 0 0 0-4h-7v-4.191a11.022 11.022 0 0 0 8.575-7.814c4.102-.05 7.425-3.398 7.425-7.512V6a2 2 0 0 0-2-2z"/>
</svg>
