<?xml version="1.0" encoding="UTF-8"?>
<svg width="164px" height="49px" viewBox="0 0 164 49" version="1.1" xmlns="http://www.w3.org/2000/svg" xmlns:xlink="http://www.w3.org/1999/xlink">
    <!-- Generator: Sketch 47.1 (45422) - http://www.bohemiancoding.com/sketch -->
    <title>Download_on_the_App_Store_Badge_US-UK_RGB_blk_092917</title>
    <desc>Created with Sketch.</desc>
    <defs></defs>
    <g id="Feed" stroke="none" stroke-width="1" fill="none" fill-rule="evenodd">
        <g id="UС_02-Feed---Popup---Download-App" transform="translate(-540.000000, -537.000000)" fill-rule="nonzero">
            <g id="Download_on_the_App_Store_Badge_US-UK_RGB_blk_092917" transform="translate(540.000000, 537.000000)">
                <g id="Group">
                    <g id="Shape">
                        <path d="M150.340338,0 L13.4081993,0 C12.9090644,0 12.4159185,0 11.918104,0.00245 C11.5013869,0.0049 11.0879911,0.01201725 10.6672722,0.0180075 C9.75327641,0.0276872094 8.84143004,0.100053418 7.9396572,0.23447725 C7.03915099,0.371827469 6.1668538,0.630771782 5.35226822,1.00255225 C4.5386789,1.37747785 3.79527907,1.86465522 3.14903752,2.44641075 C2.4994033,3.02653032 1.95788303,3.69707006 1.54529954,4.432246 C1.13157734,5.16595867 0.844701028,5.95219941 0.694578758,6.763813 C0.543029237,7.57440151 0.461479061,8.39433767 0.450660096,9.216263 C0.438028594,9.591848 0.436694664,9.9686825 0.430038625,10.3443165 L0.430038625,38.659285 C0.436694664,39.0396475 0.438028594,39.4081275 0.450660096,39.7886125 C0.461482378,40.6104971 0.543032556,41.4303923 0.694578758,42.24094 C0.844286495,43.0530281 1.13117977,43.8397201 1.54529954,44.5737075 C1.95769569,45.306506 2.49929212,45.9743311 3.14903752,46.551225 C3.79282873,47.1355672 4.53670907,47.623076 5.35226822,47.9951325 C6.16684762,48.367908 7.03905076,48.6283936 7.9396572,48.7678625 C8.84158334,48.9012095 9.75333593,48.9736052 10.6672722,48.9844425 C11.0879911,48.9927725 11.5013869,48.99755 11.918104,48.99755 C12.4159049,49 12.9090916,49 13.4081993,49 L150.340338,49 C150.829537,49 151.32663,49 151.815829,48.99755 C152.230572,48.99755 152.655932,48.9927725 153.070676,48.9844425 C153.982884,48.9741815 154.89292,48.9017813 155.792982,48.7678625 C156.696494,48.6274118 157.571824,48.3669952 158.390335,47.9951325 C159.205158,47.6228606 159.948352,47.1353651 160.591592,46.551225 C161.239661,45.9720717 161.782414,45.3047351 162.199931,44.5737075 C162.610943,43.8391862 162.895105,43.052557 163.04262,42.24094 C163.194409,41.4302811 163.278853,40.6105682 163.295251,39.7886125 C163.300559,39.4081275 163.300559,39.0396475 163.300559,38.659285 C163.311176,38.2142425 163.311176,37.77165 163.311176,37.31938 L163.311176,11.6817593 C163.311176,11.233152 163.311176,10.788134 163.300559,10.3443165 C163.300559,9.9686825 163.300559,9.591848 163.295251,9.216214 C163.278857,8.39421749 163.194413,7.5744637 163.04262,6.763764 C162.894694,5.95261996 162.610548,5.16644151 162.199931,4.432197 C161.359724,2.9586152 160.027398,1.75913111 158.390335,1.002442 C157.571822,0.631570041 156.696398,0.372694502 155.792982,0.234367 C154.893076,0.0993509093 153.982945,0.026959512 153.070676,0.017836 C152.655932,0.011858 152.230572,0.0046795 151.815829,0.00229075 C151.32663,-0.00015925 150.829537,-0.00015925 150.340338,-0.00015925 L150.340338,0 Z" fill="#A6A6A6"></path>
                        <path d="M11.9247464,47.928125 C11.5100302,47.928125 11.1053321,47.9233475 10.6938691,47.9150175 C9.84149015,47.9050224 8.9911034,47.8382407 8.14968315,47.71522 C7.36510122,47.593612 6.60505222,47.367399 5.89460612,47.0440425 C5.19067442,46.7233653 4.54863213,46.3028842 3.99307503,45.7987075 C3.42947637,45.3004697 2.96025473,44.7225989 2.60400453,44.087995 C2.24382877,43.4492667 1.9945657,42.764627 1.86489832,42.057925 C1.72486881,41.2985657 1.64910704,40.5307337 1.6382663,39.76105 C1.62963659,39.5026975 1.61833902,38.6425025 1.61833902,38.6425025 L1.61833902,10.3443165 C1.61833902,10.3443165 1.63037162,9.49733925 1.63833436,9.248505 C1.64871428,8.48004051 1.72403549,7.71340004 1.86364606,6.95521925 C1.99355279,6.24658135 2.24300882,5.55996736 2.6033784,4.91914675 C2.95831929,4.28498122 3.4249359,3.70667886 3.98513951,3.206658 C4.54471346,2.70188624 5.18880952,2.27924005 5.89393915,1.95413225 C6.60275245,1.63181466 7.36136505,1.40719737 8.14436104,1.28780575 C8.98854465,1.16354927 9.84188362,1.0963702 10.6972176,1.08683225 L11.9254134,1.071875 L151.809159,1.071875 L153.052028,1.0874325 C153.899582,1.09649652 154.745169,1.16307626 155.581595,1.28660525 C156.372518,1.40749446 157.139036,1.63367903 157.855946,1.9577215 C159.268576,2.61290791 160.418006,3.64947461 161.143131,4.92213575 C161.497749,5.55853252 161.743357,6.23954578 161.87162,6.94206275 C162.012893,7.70646444 162.09196,8.47912946 162.108189,9.253895 C162.112136,9.600815 162.112136,9.97346 162.112136,10.3443165 C162.122889,10.8036915 162.122889,11.2409308 162.122889,11.6817593 L162.122889,37.31938 C162.122889,37.7644225 162.122889,38.198685 162.112136,38.6365 C162.112136,39.03487 162.112136,39.3997975 162.106828,39.7753825 C162.09095,40.5363227 162.013202,41.2951962 161.874207,42.04592 C161.747197,42.7577199 161.499291,43.4477036 161.139184,44.09167 C160.780415,44.7193859 160.313888,45.2922511 159.756797,45.7891525 C159.20074,46.2960387 158.557564,46.7189798 157.851999,47.041715 C157.137075,47.3675573 156.371684,47.5946068 155.581595,47.71522 C154.740239,47.8388972 153.88977,47.9056832 153.037327,47.9150175 C152.638646,47.9233475 152.22118,47.928125 151.815829,47.928125 L150.340338,47.930575 L11.9247464,47.928125 Z" fill="#000000"></path>
                    </g>
                    <g id="_Group_" transform="translate(18.950000, 9.800000)" fill="#FFFFFF">
                        <g id="_Group_2">
                            <g id="_Group_3">
                                <path d="M19.1854707,15.068333 C19.2120633,12.9901562 20.2941496,11.070553 22.0526187,9.9820595 C20.9382404,8.37962814 19.1386437,7.40007598 17.1967073,7.3389015 C15.153632,7.122983 13.1729595,8.56981825 12.1318457,8.56981825 C11.0705838,8.56981825 9.4676255,7.360339 7.741504,7.39609675 C5.4703782,7.46997456 3.40440023,8.73856871 2.29945133,10.7377375 C-0.053582,14.839552 1.70156917,20.8678383 3.955578,24.1834355 C5.08330633,25.8069892 6.401297,27.6205405 8.12586117,27.556228 C9.81345083,27.4857537 10.4437328,26.47274 12.4807978,26.47274 C14.4989558,26.47274 15.0902923,27.556228 16.8498478,27.5153375 C18.6607102,27.4857415 19.8016393,25.8845685 20.8898017,24.245641 C21.7000726,23.0887996 22.3235748,21.810238 22.7372127,20.4573162 C20.5864582,19.5414221 19.1879809,17.4195421 19.1854707,15.068333 L19.1854707,15.068333 Z" id="_Path_"></path>
                                <path d="M15.8619875,5.15834025 C16.8493449,3.96493533 17.3357784,2.43101551 17.2179868,0.88233075 C15.7095244,1.04185085 14.3161276,1.76773585 13.3154312,2.915353 C12.3272894,4.04763156 11.8266991,5.52895503 11.9239173,7.03305575 C13.4526065,7.04890329 14.9040646,6.35793769 15.8619875,5.15834025 L15.8619875,5.15834025 Z" id="_Path_2"></path>
                            </g>
                        </g>
                        <g id="Group" transform="translate(30.416667, 11.025000)">
                            <path d="M10.1010952,12.4210712 L4.34212517,12.4210712 L2.95911583,16.5327225 L0.519845167,16.5327225 L5.9746485,1.3206725 L8.50896517,1.3206725 L13.9637685,16.5327225 L11.4829,16.5327225 L10.1010952,12.4210712 Z M4.93857167,10.5237545 L9.503505,10.5237545 L7.25314617,3.85084875 L7.1901715,3.85084875 L4.93857167,10.5237545 Z" id="Shape"></path>
                            <path d="M25.7442895,10.9879192 C25.7442895,14.4344322 23.9121598,16.6487545 21.1473335,16.6487545 C19.7182189,16.7240242 18.3720711,15.9703626 17.6815003,14.7083545 L17.6291837,14.7083545 L17.6291837,20.20172 L15.3681303,20.20172 L15.3681303,5.4419155 L17.5567433,5.4419155 L17.5567433,7.286594 L17.598329,7.286594 C18.3195791,6.0324977 19.6671785,5.27916057 21.1057478,5.32587125 C23.9014167,5.3258835 25.7442895,7.5509735 25.7442895,10.9879192 Z M23.4202615,10.9879192 C23.4202615,8.74249425 22.2677497,7.266259 20.5092892,7.266259 C18.7817198,7.266259 17.6197058,8.77358475 17.6197058,10.9879192 C17.6197058,13.2225887 18.7817198,14.7191467 20.5092892,14.7191467 C22.2677618,14.7191468 23.4202615,13.2536915 23.4202615,10.9879192 Z" id="Shape"></path>
                            <path d="M37.8681782,10.9879192 C37.8681782,14.4344322 36.0360485,16.6487545 33.2712222,16.6487545 C31.8421076,16.7240242 30.4959598,15.9703626 29.805389,14.7083545 L29.7530723,14.7083545 L29.7530723,20.20172 L27.492019,20.20172 L27.492019,5.4419155 L29.6805833,5.4419155 L29.6805833,7.286594 L29.722169,7.286594 C30.4434244,6.03249846 31.7910289,5.27916577 33.2296,5.3258835 C36.025354,5.3258835 37.8681782,7.5509735 37.8681782,10.9879192 Z M35.5441502,10.9879192 C35.5441502,8.74249425 34.3916383,7.266259 32.6331778,7.266259 C30.9056085,7.266259 29.7435945,8.77358475 29.7435945,10.9879192 C29.7435945,13.2225887 30.9056085,14.7191467 32.6331778,14.7191467 C34.3916505,14.7191468 35.5441623,13.2536915 35.5441623,10.9879192 L35.5441502,10.9879192 Z" id="Shape"></path>
                            <path d="M45.8810718,12.2942593 C46.0486068,13.8027855 47.5041052,14.7932593 49.493051,14.7932593 C51.3988498,14.7932593 52.7699723,13.8027365 52.7699723,12.4425455 C52.7699723,11.2618048 51.9430162,10.5548205 49.9849493,10.0703085 L48.0268825,9.595376 C45.252554,8.9206705 43.9645907,7.61431825 43.9645907,5.4944925 C43.9645907,2.869832 46.2363385,1.067024 49.4621598,1.067024 C52.6546932,1.067024 54.843294,2.869832 54.9169632,5.4944925 L52.6344965,5.4944925 C52.4978648,3.976399 51.2514872,3.06005 49.430052,3.06005 C47.6086168,3.06005 46.3622513,3.987179 46.3622513,5.33659 C46.3622513,6.41205425 47.1583163,7.04488925 49.1056887,7.52934 L50.7702833,7.9408665 C53.8701675,8.678978 55.1581308,9.9327165 55.1581308,12.157782 C55.1581308,15.003751 52.9065797,16.786224 49.3254917,16.786224 C45.9749012,16.786224 43.7126677,15.0456215 43.5665217,12.294149 L45.8810718,12.2942593 Z" id="Shape"></path>
                            <path d="M60.0378888,2.817255 L60.0378888,5.4419155 L62.1325995,5.4419155 L62.1325995,7.2447235 L60.0378888,7.2447235 L60.0378888,13.3589557 C60.0378888,14.3088085 60.4573103,14.7514377 61.3781202,14.7514377 C61.6267964,14.7470718 61.8750703,14.729489 62.121905,14.6987628 L62.121905,16.490803 C61.7079078,16.568688 61.2871145,16.6039617 60.8660252,16.5960795 C58.6358752,16.5960795 57.766141,15.7526915 57.766141,13.601763 L57.766141,7.2447235 L56.164521,7.2447235 L56.164521,5.4419155 L57.7661167,5.4419155 L57.7661167,2.817255 L60.0378888,2.817255 Z" id="Shape"></path>
                            <path d="M63.34575,10.9879192 C63.34575,7.4983475 65.3869882,5.3055485 68.5700558,5.3055485 C71.7638058,5.3055485 73.7955418,7.4982985 73.7955418,10.9879192 C73.7955418,14.4870705 71.7745003,16.67029 68.5700558,16.67029 C65.3667428,16.67029 63.34575,14.4870582 63.34575,10.9879192 Z M71.4917105,10.9879192 C71.4917105,8.59414675 70.4021733,7.18132975 68.5700437,7.18132975 C66.737914,7.18132975 65.6495692,8.6049145 65.6495692,10.9879192 C65.6495692,13.391259 66.737914,14.7933205 68.5700437,14.7933205 C70.4021733,14.7933205 71.4916618,13.391259 71.4916618,10.9879192 L71.4917105,10.9879192 Z" id="Shape"></path>
                            <path d="M75.6597063,5.4419155 L77.8161993,5.4419155 L77.8161993,7.3296405 L77.868516,7.3296405 C78.1692469,6.1144263 79.2751439,5.27807366 80.5180875,5.325859 C80.7786537,5.32494298 81.0385011,5.35343466 81.2927635,5.4108005 L81.2927635,7.5401935 C80.9638145,7.43898807 80.6206642,7.39252133 80.2768468,7.402626 C79.6121188,7.37547441 78.9688096,7.64220504 78.5158331,8.13278232 C78.0628566,8.62335959 77.8454682,9.28877166 77.9207475,9.954301 L77.9207475,16.532698 L75.6596942,16.532698 L75.6597063,5.4419155 Z" id="Shape"></path>
                            <path d="M91.717565,13.2752147 C91.4133983,15.2885635 89.4660138,16.6702777 86.974463,16.6702777 C83.7700185,16.6702777 81.7810605,14.5085815 81.7810605,11.0405452 C81.7810605,7.56174125 83.780713,5.30553625 86.879417,5.30553625 C89.927021,5.30553625 91.8435143,7.41339375 91.8435143,10.7761657 L91.8435143,11.5561477 L84.0635028,11.5561477 L84.0635028,11.6937152 C83.9908647,12.519404 84.2740368,13.3367213 84.8409892,13.9377682 C85.4079417,14.538815 86.2040301,14.8656608 87.0267553,14.8351665 C88.1239968,14.9386785 89.1584807,14.3042976 89.5705863,13.2752025 L91.717565,13.2752147 Z M84.0741852,9.965081 L89.5812687,9.965081 C89.6223013,9.22314443 89.3540641,8.49760828 88.8411826,7.96327365 C88.328301,7.42893901 87.6172776,7.1342535 86.879417,7.15021475 C86.1357195,7.14574623 85.4210604,7.44056992 84.8942861,7.96915573 C84.3675117,8.49774153 84.0722705,9.21629108 84.0741852,9.96509325 L84.0741852,9.965081 Z" id="Shape"></path>
                        </g>
                    </g>
                </g>
                <g id="_Group_4" transform="translate(50.583333, 9.800000)" fill="#FFFFFF">
                    <g id="Group">
                        <path d="M3.43853117,0.895475 C4.39841614,0.826120622 5.33860226,1.1938206 6.00030957,1.89736798 C6.66201688,2.60091535 6.97549781,3.56615237 6.85446883,4.527404 C6.85446883,6.86256025 5.60097367,8.204854 3.43853117,8.204854 L0.816286,8.204854 L0.816286,0.895475 L3.43853117,0.895475 Z M1.94383183,7.17115 L3.31258183,7.17115 C3.9985652,7.21243496 4.6665086,6.94030978 5.13094919,6.43033344 C5.59538978,5.9203571 5.80688186,5.22682316 5.706702,4.5423 C5.7995933,3.86061755 5.58505551,3.17280661 5.12176648,2.66698913 C4.65847744,2.16117164 3.99491973,1.89028072 3.31258183,1.92840725 L1.94383183,1.92840725 L1.94383183,7.17115 Z" id="Shape"></path>
                        <path d="M8.12816067,5.4443165 C8.03421834,4.45560069 8.50508846,3.49873712 9.34328938,2.97503177 C10.1814903,2.45132643 11.2420995,2.45132643 12.0803005,2.97503177 C12.9185014,3.49873712 13.3893715,4.45560069 13.2954292,5.4443165 C13.3911589,6.43409477 12.9207185,7.39281422 12.0817744,7.91764699 C11.2428303,8.44247977 10.1807595,8.44247977 9.34181542,7.91764699 C8.5028713,7.39281422 8.03243097,6.43409477 8.12816067,5.4443165 Z M12.1833107,5.4443165 C12.1833107,4.24863075 11.6498267,3.54940075 10.7135773,3.54940075 C9.773751,3.54940075 9.24506067,4.24863075 9.24506067,5.44432875 C9.24506067,6.649594 9.7737875,7.343434 10.7135773,7.343434 C11.649851,7.34342175 12.1833228,6.644792 12.1833228,5.4443165 L12.1833107,5.4443165 Z" id="Shape"></path>
                        <polygon id="Shape" points="20.164133 8.20474375 19.0425245 8.20474375 17.9102215 4.1421415 17.8246777 4.1421415 16.6971197 8.20474375 15.5861935 8.20474375 14.0760547 2.6886545 15.1727215 2.6886545 16.1541335 6.8977545 16.2349323 6.8977545 17.361298 2.6886545 18.398555 2.6886545 19.5249207 6.8977545 19.6104645 6.8977545 20.5871193 2.6886545 21.6683345 2.6886545"></polygon>
                        <path d="M22.9384737,2.6886545 L23.9792833,2.6886545 L23.9792833,3.56493375 L24.0600822,3.56493375 C24.3410529,2.91976048 24.9976003,2.52510165 25.694978,2.5821775 C26.2349551,2.54130142 26.7640945,2.74986763 27.1329938,3.14898754 C27.5018931,3.54810744 27.6705199,4.09446911 27.5912625,4.6338075 L27.5912625,8.2046825 L26.5100473,8.2046825 L26.5100473,4.9071785 C26.5100473,4.02073175 26.1274665,3.579891 25.3278367,3.579891 C24.9615784,3.56271542 24.6061345,3.70744115 24.3546914,3.97612556 C24.1032483,4.24480997 23.9808833,4.61065624 24.0196767,4.97775075 L24.0196767,8.20474375 L22.9384615,8.20474375 L22.9384737,2.6886545 Z" id="Shape"></path>
                        <polygon id="Shape" points="29.3140868 0.535325 30.395302 0.535325 30.395302 8.2047315 29.3140868 8.2047315"></polygon>
                        <path d="M31.8983112,5.4443165 C31.804441,4.455536 32.2753854,3.49864822 33.1136485,2.9749348 C33.9519116,2.45122138 35.0125754,2.45122138 35.8508385,2.9749348 C36.6891016,3.49864822 37.160046,4.455536 37.0661758,5.4443165 C37.1617839,6.43413021 36.6912574,7.39282256 35.8522717,7.91763222 C35.0132859,8.44244188 33.9512011,8.44244188 33.1122153,7.91763222 C32.2732296,7.39282256 31.8027031,6.43413021 31.8983112,5.4443165 L31.8983112,5.4443165 Z M35.9534612,5.4443165 C35.9534612,4.24863075 35.4199772,3.54940075 34.4837278,3.54940075 C33.5439015,3.54940075 33.0152112,4.24863075 33.0152112,5.44432875 C33.0152112,6.649594 33.543938,7.343434 34.4837278,7.343434 C35.4199893,7.34342175 35.9534733,6.644792 35.9534733,5.4443165 L35.9534612,5.4443165 Z" id="Shape"></path>
                        <path d="M38.2044283,6.644792 C38.2044283,5.65186825 38.938711,5.07945025 40.2421017,4.998098 L41.7261065,4.91196825 L41.7261065,4.4358475 C41.7261065,3.85324975 41.3435257,3.524276 40.604498,3.524276 C40.0009218,3.524276 39.5826927,3.74738525 39.4626807,4.13737625 L38.4159215,4.13737625 C38.5264192,3.18991225 39.4115928,2.582202 40.6543935,2.582202 C42.0279007,2.582202 42.8025767,3.270652 42.8025767,4.4358475 L42.8025767,8.204756 L41.7617548,8.204756 L41.7617548,7.42956375 L41.676211,7.42956375 C41.3227068,7.99566851 40.6940613,8.32652496 40.0306207,8.29563875 C39.5655329,8.34434697 39.1016849,8.19269056 38.7537482,7.87816174 C38.4058116,7.56363293 38.2062607,7.11558806 38.2044283,6.644792 L38.2044283,6.644792 Z M41.7261065,6.17344875 L41.7261065,5.71228525 L40.3882477,5.798415 C39.6337683,5.8492525 39.2915808,6.107654 39.2915808,6.59394225 C39.2915808,7.090398 39.7193122,7.379302 40.3074975,7.379302 C40.6556905,7.41479008 41.0032804,7.30648194 41.2706965,7.0791716 C41.5381125,6.85186125 41.7024565,6.5250128 41.7261065,6.17344875 Z" id="Shape"></path>
                        <path d="M44.2235947,5.4443165 C44.2235947,3.70132525 45.1135255,2.597147 46.497715,2.597147 C47.1966617,2.56472141 47.8512902,2.94180426 48.1777613,3.564897 L48.2585602,3.564897 L48.2585602,0.535325 L49.3397753,0.535325 L49.3397753,8.2047315 L48.3037107,8.2047315 L48.3037107,7.33322975 L48.2181668,7.33322975 C47.8670176,7.9511528 47.204324,8.32186168 46.4977272,8.29563875 C45.1040233,8.2957 44.2235947,7.19149725 44.2235947,5.4443165 Z M45.3404947,5.4443165 C45.3404947,6.6142895 45.888238,7.31830925 46.8043028,7.31830925 C47.7155862,7.31830925 48.2787933,6.60413425 48.2787933,5.44910625 C48.2787933,4.29946825 47.7096732,3.5751135 46.8043028,3.5751135 C45.8941388,3.5751135 45.3404582,4.28391075 45.3404582,5.4443165 L45.3404947,5.4443165 Z" id="Shape"></path>
                        <path d="M53.8131667,5.4443165 C53.7192243,4.45560069 54.1900945,3.49873712 55.0282954,2.97503177 C55.8664963,2.45132643 56.9271055,2.45132643 57.7653065,2.97503177 C58.6035074,3.49873712 59.0743775,4.45560069 58.9804352,5.4443165 C59.0761649,6.43409477 58.6057245,7.39281422 57.7667804,7.91764699 C56.9278363,8.44247977 55.8657655,8.44247977 55.0268214,7.91764699 C54.1878773,7.39281422 53.717437,6.43409477 53.8131667,5.4443165 L53.8131667,5.4443165 Z M57.8683167,5.4443165 C57.8683167,4.24863075 57.3348327,3.54940075 56.3985833,3.54940075 C55.458757,3.54940075 54.9300667,4.24863075 54.9300667,5.44432875 C54.9300667,6.649594 55.4587935,7.343434 56.3985833,7.343434 C57.3348448,7.34342175 57.8683167,6.644792 57.8683167,5.4443165 Z" id="Shape"></path>
                        <path d="M60.4311642,2.6886545 L61.471986,2.6886545 L61.471986,3.56493375 L61.5527848,3.56493375 C61.8337556,2.91976048 62.490303,2.52510165 63.1876807,2.5821775 C63.7276578,2.54130142 64.2567971,2.74986763 64.6256964,3.14898754 C64.9945958,3.54810744 65.1632226,4.09446911 65.0839652,4.6338075 L65.0839652,8.2046825 L64.00275,8.2046825 L64.00275,4.9071785 C64.00275,4.02073175 63.6201692,3.579891 62.8205393,3.579891 C62.4542811,3.56271542 62.0988372,3.70744115 61.8473941,3.97612556 C61.595951,4.24480997 61.473586,4.61065624 61.5123793,4.97775075 L61.5123793,8.20474375 L60.4311642,8.20474375 L60.4311642,2.6886545 Z" id="Shape"></path>
                        <path d="M71.1934447,1.31531925 L71.1934447,2.71377925 L72.3804125,2.71377925 L72.3804125,3.63074075 L71.1934447,3.63074075 L71.1934447,6.4671425 C71.1934447,7.0449505 71.4298917,7.297962 71.9681207,7.297962 C72.1059149,7.29751798 72.2435709,7.28912934 72.3804125,7.27283725 L72.3804125,8.179619 C72.1862441,8.21459363 71.9895165,8.23320055 71.7922758,8.23524625 C70.5898685,8.23524625 70.1110372,7.80936275 70.1110372,6.74586675 L70.1110372,3.63069175 L69.2413152,3.63069175 L69.2413152,2.71373025 L70.1110372,2.71373025 L70.1110372,1.31531925 L71.1934447,1.31531925 Z" id="Shape"></path>
                        <path d="M73.8572755,0.535325 L74.9289885,0.535325 L74.9289885,3.57510125 L75.0145323,3.57510125 C75.3089994,2.92428149 75.9770375,2.52911974 76.6850157,2.58696725 C77.2219265,2.55755167 77.743903,2.77070955 78.1087703,3.16838147 C78.4736376,3.56605339 78.6433927,4.1068194 78.571798,4.643387 L78.571798,8.20474375 L77.4895,8.20474375 L77.4895,4.91194375 C77.4895,4.03087475 77.0819167,3.58465625 76.3179838,3.58465625 C75.9418257,3.55359474 75.5712292,3.69128143 75.3052698,3.96090704 C75.0393104,4.23053266 74.9051077,4.60460388 74.9385393,4.98311625 L74.9385393,8.20471925 L73.8573242,8.20471925 L73.8572755,0.535325 Z" id="Shape"></path>
                        <path d="M84.8761875,6.71536425 C84.5730027,7.75585412 83.5729537,8.42812622 82.502264,8.3112085 C81.7717334,8.33062499 81.0696529,8.0257476 80.582301,7.47746757 C80.0949492,6.92918754 79.8715951,6.19293353 79.9715,5.46405125 C79.8742487,4.73314333 80.0967658,3.99570957 80.5814039,3.44279752 C81.0660419,2.88988547 81.7651124,2.57590152 82.4975068,2.58218975 C84.021905,2.58218975 84.9415347,3.63078975 84.9415347,5.36293975 L84.9415347,5.7428 L81.0729118,5.7428 L81.0729118,5.803805 C81.0386773,6.21312667 81.1775217,6.61799849 81.455299,6.91884986 C81.7330762,7.21970122 82.1240119,7.3886168 82.5319628,7.384055 C83.0609353,7.44799349 83.5758537,7.18380798 83.8353657,6.7153275 L84.8761875,6.71536425 Z M81.0728875,4.937681 L83.8400863,4.937681 C83.8676474,4.56332153 83.7369111,4.19465121 83.4800953,3.92252239 C83.2232794,3.65039357 82.864268,3.50011438 82.491533,3.5087185 C82.1137483,3.50393967 81.7500574,3.65297601 81.4829606,3.92201988 C81.2158637,4.19106375 81.0680003,4.55731083 81.0729118,4.937681 L81.0728875,4.937681 Z" id="Shape"></path>
                    </g>
                </g>
            </g>
        </g>
    </g>
</svg>