<?xml version="1.0" encoding="UTF-8"?>
<svg width="164px" height="49px" viewBox="0 0 164 49" version="1.1" xmlns="http://www.w3.org/2000/svg" xmlns:xlink="http://www.w3.org/1999/xlink">
    <!-- Generator: Sketch 47.1 (45422) - http://www.bohemiancoding.com/sketch -->
    <title>google-play-badge</title>
    <desc>Created with Sketch.</desc>
    <defs>
        <linearGradient x1="91.5361538%" y1="4.8448%" x2="-37.5592308%" y2="71.9744%" id="linearGradient-1">
            <stop stop-color="#00A0FF" offset="0%"></stop>
            <stop stop-color="#00A1FF" offset="0.657445%"></stop>
            <stop stop-color="#00BEFF" offset="26.01%"></stop>
            <stop stop-color="#00D2FF" offset="51.22%"></stop>
            <stop stop-color="#00DFFF" offset="76.04%"></stop>
            <stop stop-color="#00E3FF" offset="100%"></stop>
        </linearGradient>
        <linearGradient x1="107.728079%" y1="49.4458824%" x2="-130.665025%" y2="49.4458824%" id="linearGradient-2">
            <stop stop-color="#FFE000" offset="0%"></stop>
            <stop stop-color="#FFBD00" offset="40.87%"></stop>
            <stop stop-color="#FFA500" offset="77.54%"></stop>
            <stop stop-color="#FF9C00" offset="100%"></stop>
        </linearGradient>
        <linearGradient x1="86.3892216%" y1="17.8259083%" x2="-49.888024%" y2="194.403653%" id="linearGradient-3">
            <stop stop-color="#FF3A44" offset="0%"></stop>
            <stop stop-color="#C31162" offset="100%"></stop>
        </linearGradient>
        <linearGradient x1="-18.5790419%" y1="-54.5157405%" x2="42.2748503%" y2="24.7010149%" id="linearGradient-4">
            <stop stop-color="#32A071" offset="0%"></stop>
            <stop stop-color="#2DA771" offset="6.85%"></stop>
            <stop stop-color="#15CF74" offset="47.62%"></stop>
            <stop stop-color="#06E775" offset="80.09%"></stop>
            <stop stop-color="#00F076" offset="100%"></stop>
        </linearGradient>
    </defs>
    <g id="Post-DD-Menu-+-Report+Delete" stroke="none" stroke-width="1" fill="none" fill-rule="evenodd">
        <g id="google-play-badge" fill-rule="nonzero">
            <path d="M157.925926,49 L6.07407407,49 C2.67259259,49 0,46.305 0,42.875 L0,6.125 C0,2.695 2.67259259,0 6.07407407,0 L157.925926,0 C161.327407,0 164,2.695 164,6.125 L164,42.875 C164,46.305 161.327407,49 157.925926,49 Z" id="Shape" fill="#000000"></path>
            <path d="M157.925926,0.98 C160.72,0.98 163.028148,3.3075 163.028148,6.125 L163.028148,42.875 C163.028148,45.6925 160.72,48.02 157.925926,48.02 L6.07407407,48.02 C3.28,48.02 0.971851852,45.6925 0.971851852,42.875 L0.971851852,6.125 C0.971851852,3.3075 3.28,0.98 6.07407407,0.98 L157.925926,0.98 L157.925926,0.98 Z M157.925926,0 L6.07407407,0 C2.67259259,0 0,2.695 0,6.125 L0,42.875 C0,46.305 2.67259259,49 6.07407407,49 L157.925926,49 C161.327407,49 164,46.305 164,42.875 L164,6.125 C164,2.8175 161.327407,0 157.925926,0 L157.925926,0 Z" id="Shape" fill="#A6A6A6"></path>
            <g id="Group" transform="translate(49.807407, 7.350000)" stroke="#FFFFFF" stroke-width="0.5" fill="#FFFFFF">
                <path d="M7.77481481,5.145 C7.77481481,6.125 7.53185185,6.9825 6.92444444,7.595 C6.19555556,8.33 5.34518519,8.6975 4.25185185,8.6975 C3.15851852,8.6975 2.30814815,8.33 1.57925926,7.595 C0.85037037,6.86 0.485925926,6.0025 0.485925926,4.9 C0.485925926,3.7975 0.85037037,2.94 1.57925926,2.205 C2.30814815,1.47 3.15851852,1.1025 4.25185185,1.1025 C4.73777778,1.1025 5.2237037,1.225 5.70962963,1.47 C6.19555556,1.715 6.56,1.96 6.80296296,2.3275 L6.19555556,2.94 C5.70962963,2.3275 5.10222222,2.0825 4.25185185,2.0825 C3.52296296,2.0825 2.79407407,2.3275 2.30814815,2.94 C1.70074074,3.43 1.45777778,4.165 1.45777778,5.0225 C1.45777778,5.88 1.70074074,6.615 2.30814815,7.105 C2.91555556,7.595 3.52296296,7.9625 4.25185185,7.9625 C5.10222222,7.9625 5.70962963,7.7175 6.31703704,7.105 C6.68148148,6.7375 6.92444444,6.2475 6.92444444,5.635 L4.25185185,5.635 L4.25185185,4.7775 L7.77481481,4.7775 C7.77481481,4.7775 7.77481481,5.0225 7.77481481,5.145 Z" id="Shape"></path>
                <polygon id="Shape" points="13.362963 2.0825 10.082963 2.0825 10.082963 4.41 13.12 4.41 13.12 5.2675 10.082963 5.2675 10.082963 7.595 13.362963 7.595 13.362963 8.575 9.11111111 8.575 9.11111111 1.225 13.362963 1.225"></polygon>
                <polygon id="Shape" points="17.3718519 8.575 16.4 8.575 16.4 2.0825 14.3348148 2.0825 14.3348148 1.225 19.437037 1.225 19.437037 2.0825 17.3718519 2.0825"></polygon>
                <polygon id="Shape" points="22.96 8.575 22.96 1.225 23.9318519 1.225 23.9318519 8.575"></polygon>
                <polygon id="Shape" points="28.0622222 8.575 27.0903704 8.575 27.0903704 2.0825 25.0251852 2.0825 25.0251852 1.225 30.0059259 1.225 30.0059259 2.0825 27.9407407 2.0825 27.9407407 8.575"></polygon>
                <path d="M39.602963,7.595 C38.8740741,8.33 38.0237037,8.6975 36.9303704,8.6975 C35.837037,8.6975 34.9866667,8.33 34.2577778,7.595 C33.5288889,6.86 33.1644444,6.0025 33.1644444,4.9 C33.1644444,3.7975 33.5288889,2.94 34.2577778,2.205 C34.9866667,1.47 35.837037,1.1025 36.9303704,1.1025 C38.0237037,1.1025 38.8740741,1.47 39.602963,2.205 C40.3318519,2.94 40.6962963,3.7975 40.6962963,4.9 C40.6962963,6.0025 40.3318519,6.86 39.602963,7.595 Z M34.9866667,6.9825 C35.4725926,7.4725 36.2014815,7.84 36.9303704,7.84 C37.6592593,7.84 38.3881481,7.595 38.8740741,6.9825 C39.36,6.4925 39.7244444,5.7575 39.7244444,4.9 C39.7244444,4.0425 39.4814815,3.3075 38.8740741,2.8175 C38.3881481,2.3275 37.6592593,1.96 36.9303704,1.96 C36.2014815,1.96 35.4725926,2.205 34.9866667,2.8175 C34.5007407,3.3075 34.1362963,4.0425 34.1362963,4.9 C34.1362963,5.7575 34.3792593,6.4925 34.9866667,6.9825 Z" id="Shape"></path>
                <polygon id="Shape" points="42.0325926 8.575 42.0325926 1.225 43.1259259 1.225 46.6488889 6.9825 46.6488889 6.9825 46.6488889 5.5125 46.6488889 1.225 47.6207407 1.225 47.6207407 8.575 46.6488889 8.575 42.882963 2.5725 42.882963 2.5725 42.882963 4.0425 42.882963 8.575"></polygon>
            </g>
            <path d="M82.7288889,26.705 C79.8133333,26.705 77.5051852,28.91 77.5051852,31.9725 C77.5051852,34.9125 79.8133333,37.24 82.7288889,37.24 C85.6444444,37.24 87.9525926,35.035 87.9525926,31.9725 C87.9525926,28.7875 85.6444444,26.705 82.7288889,26.705 Z M82.7288889,35.035 C81.1496296,35.035 79.8133333,33.6875 79.8133333,31.85 C79.8133333,30.0125 81.1496296,28.665 82.7288889,28.665 C84.3081481,28.665 85.6444444,29.89 85.6444444,31.85 C85.6444444,33.6875 84.3081481,35.035 82.7288889,35.035 Z M71.4311111,26.705 C68.5155556,26.705 66.2074074,28.91 66.2074074,31.9725 C66.2074074,34.9125 68.5155556,37.24 71.4311111,37.24 C74.3466667,37.24 76.6548148,35.035 76.6548148,31.9725 C76.6548148,28.7875 74.3466667,26.705 71.4311111,26.705 Z M71.4311111,35.035 C69.8518519,35.035 68.5155556,33.6875 68.5155556,31.85 C68.5155556,30.0125 69.8518519,28.665 71.4311111,28.665 C73.0103704,28.665 74.3466667,29.89 74.3466667,31.85 C74.3466667,33.6875 73.0103704,35.035 71.4311111,35.035 Z M57.9466667,28.2975 L57.9466667,30.5025 L63.1703704,30.5025 C63.0488889,31.7275 62.562963,32.7075 61.9555556,33.32 C61.2266667,34.055 60.0118519,34.9125 57.9466667,34.9125 C54.6666667,34.9125 52.237037,32.34 52.237037,29.0325 C52.237037,25.725 54.7881481,23.1525 57.9466667,23.1525 C59.6474074,23.1525 60.9837037,23.8875 61.9555556,24.745 L63.5348148,23.1525 C62.1985185,21.9275 60.4977778,20.9475 58.0681481,20.9475 C53.6948148,20.9475 49.9288889,24.6225 49.9288889,29.0325 C49.9288889,33.4425 53.6948148,37.1175 58.0681481,37.1175 C60.4977778,37.1175 62.1985185,36.3825 63.6562963,34.79 C65.1140741,33.32 65.6,31.2375 65.6,29.645 C65.6,29.155 65.6,28.665 65.4785185,28.2975 L57.9466667,28.2975 L57.9466667,28.2975 Z M113.099259,30.0125 C112.613333,28.7875 111.398519,26.705 108.725926,26.705 C106.053333,26.705 103.866667,28.7875 103.866667,31.9725 C103.866667,34.9125 106.053333,37.24 108.968889,37.24 C111.277037,37.24 112.734815,35.77 113.220741,34.9125 L111.52,33.6875 C110.912593,34.545 110.183704,35.1575 108.968889,35.1575 C107.754074,35.1575 107.025185,34.6675 106.417778,33.565 L113.342222,30.625 L113.099259,30.0125 Z M106.053333,31.7275 C106.053333,29.7675 107.632593,28.665 108.725926,28.665 C109.576296,28.665 110.426667,29.155 110.66963,29.7675 L106.053333,31.7275 Z M100.343704,36.75 L102.651852,36.75 L102.651852,21.4375 L100.343704,21.4375 L100.343704,36.75 Z M96.6992593,27.8075 L96.6992593,27.8075 C96.0918519,27.195 95.12,26.5825 93.9051852,26.5825 C91.3540741,26.5825 88.9244444,28.91 88.9244444,31.85 C88.9244444,34.79 91.2325926,36.995 93.9051852,36.995 C95.12,36.995 96.0918519,36.3825 96.5777778,35.77 L96.6992593,35.77 L96.6992593,36.505 C96.6992593,38.465 95.6059259,39.5675 93.9051852,39.5675 C92.5688889,39.5675 91.597037,38.5875 91.3540741,37.73 L89.4103704,38.5875 C90.0177778,39.935 91.4755556,41.65 94.0266667,41.65 C96.6992593,41.65 98.8859259,40.0575 98.8859259,36.26 L98.8859259,26.95 L96.6992593,26.95 L96.6992593,27.8075 L96.6992593,27.8075 Z M94.0266667,35.035 C92.4474074,35.035 91.1111111,33.6875 91.1111111,31.85 C91.1111111,30.0125 92.4474074,28.665 94.0266667,28.665 C95.6059259,28.665 96.8207407,30.0125 96.8207407,31.85 C96.8207407,33.6875 95.6059259,35.035 94.0266667,35.035 Z M123.668148,21.4375 L118.201481,21.4375 L118.201481,36.75 L120.50963,36.75 L120.50963,30.9925 L123.668148,30.9925 C126.219259,30.9925 128.648889,29.155 128.648889,26.215 C128.648889,23.275 126.219259,21.4375 123.668148,21.4375 Z M123.78963,28.7875 L120.50963,28.7875 L120.50963,23.52 L123.78963,23.52 C125.49037,23.52 126.462222,24.99 126.462222,26.0925 C126.340741,27.44 125.368889,28.7875 123.78963,28.7875 Z M137.76,26.5825 C136.059259,26.5825 134.358519,27.3175 133.751111,28.91 L135.816296,29.7675 C136.302222,28.91 137.031111,28.665 137.881481,28.665 C139.096296,28.665 140.18963,29.4 140.311111,30.625 L140.311111,30.7475 C139.946667,30.5025 138.974815,30.135 138.002963,30.135 C135.816296,30.135 133.62963,31.36 133.62963,33.565 C133.62963,35.6475 135.451852,36.995 137.395556,36.995 C138.974815,36.995 139.703704,36.26 140.311111,35.525 L140.432593,35.525 L140.432593,36.75 L142.619259,36.75 L142.619259,30.87 C142.376296,28.175 140.311111,26.5825 137.76,26.5825 Z M137.517037,35.035 C136.788148,35.035 135.694815,34.6675 135.694815,33.6875 C135.694815,32.4625 137.031111,32.095 138.124444,32.095 C139.096296,32.095 139.582222,32.34 140.18963,32.585 C139.946667,34.055 138.731852,35.035 137.517037,35.035 Z M150.272593,26.95 L147.721481,33.565 L147.6,33.565 L144.927407,26.95 L142.497778,26.95 L146.506667,36.26 L144.198519,41.405 L146.506667,41.405 L152.702222,26.95 L150.272593,26.95 Z M129.863704,36.75 L132.171852,36.75 L132.171852,21.4375 L129.863704,21.4375 L129.863704,36.75 Z" id="Shape" fill="#FFFFFF"></path>
            <g id="Group" transform="translate(10.933333, 8.575000)">
                <path d="M1.70074074,0.6125 C1.3362963,0.98 1.09333333,1.5925 1.09333333,2.3275 L1.09333333,29.4 C1.09333333,30.135 1.3362963,30.7475 1.70074074,31.115 L1.82222222,31.2375 L16.8859259,16.0475 L16.8859259,15.925 L16.8859259,15.8025 L1.70074074,0.6125 L1.70074074,0.6125 Z" id="Shape" fill="url(#linearGradient-1)"></path>
                <path d="M21.8666667,21.1925 L16.8859259,16.17 L16.8859259,15.925 L16.8859259,15.8025 L21.8666667,10.78 L21.9881481,10.9025 L27.9407407,14.3325 C29.6414815,15.3125 29.6414815,16.905 27.9407407,17.885 L21.8666667,21.1925 L21.8666667,21.1925 Z" id="Shape" fill="url(#linearGradient-2)"></path>
                <path d="M21.9881481,21.07 L16.8859259,15.925 L1.70074074,31.2375 C2.30814815,31.85 3.15851852,31.85 4.25185185,31.36 L21.9881481,21.07" id="Shape" fill="url(#linearGradient-3)"></path>
                <path d="M21.9881481,10.78 L4.25185185,0.6125 C3.15851852,-4.16333634e-16 2.30814815,0.1225 1.70074074,0.735 L16.8859259,15.925 L21.9881481,10.78 Z" id="Shape" fill="url(#linearGradient-4)"></path>
                <g transform="translate(1.214815, 20.825000)" id="Shape" fill="#000000">
                    <path d="M20.6518519,0.1225 L3.03703704,10.1675 C2.06518519,10.78 1.21481481,10.6575 0.607407407,10.1675 L0.607407407,10.1675 L0.485925926,10.29 L0.485925926,10.29 L0.607407407,10.4125 L0.607407407,10.4125 C1.21481481,10.9025 2.06518519,11.025 3.03703704,10.4125 L20.6518519,0.1225 L20.6518519,0.1225 Z" opacity="0.2"></path>
                    <path d="M0.485925926,10.1675 C0.121481481,9.8 0,9.1875 0,8.4525 L0,8.575 C0,9.31 0.242962963,9.9225 0.607407407,10.29 L0.607407407,10.1675 L0.485925926,10.1675 Z" opacity="0.12"></path>
                </g>
                <path d="M27.9407407,17.5175 L21.8666667,20.9475 L21.9881481,21.07 L27.9407407,17.64 C28.7911111,17.15 29.1555556,16.5375 29.1555556,15.925 L29.1555556,15.925 C29.1555556,16.5375 28.6696296,17.0275 27.9407407,17.5175 Z" id="Shape" fill="#000000" opacity="0.12"></path>
                <path d="M4.25185185,0.735 L27.9407407,14.3325 C28.6696296,14.8225 29.1555556,15.3125 29.1555556,15.925 L29.1555556,15.925 C29.1555556,15.3125 28.7911111,14.7 27.9407407,14.21 L4.25185185,0.6125 C2.55111111,-0.3675 1.21481481,0.49 1.21481481,2.45 L1.21481481,2.5725 C1.21481481,0.6125 2.55111111,-0.245 4.25185185,0.735 Z" id="Shape" fill="#FFFFFF" opacity="0.25"></path>
            </g>
        </g>
    </g>
</svg>