<?xml version="1.0" encoding="UTF-8"?>
<svg width="20px" height="15px" viewBox="0 0 20 15" version="1.1" xmlns="http://www.w3.org/2000/svg" xmlns:xlink="http://www.w3.org/1999/xlink">
    <!-- Generator: sketchtool 47.1 (45422) - http://www.bohemiancoding.com/sketch -->
    <title>D8EA11F5-3749-4CBB-9E8C-45916C2AD830</title>
    <desc>Created with sketchtool.</desc>
    <defs></defs>
    <g id="Symbols" stroke="none" stroke-width="1" fill="none" fill-rule="evenodd">
        <g id="Icons-SVG" transform="translate(-29.000000, -263.000000)" fill="#DD5454">
            <g id="extreme_icn" transform="translate(27.000000, 258.000000)">
                <path d="M15.7225003,9.77715959 C15.6127534,9.61333805 15.4395999,9.50737616 15.2495433,9.48709105 C15.0583844,9.46779024 14.8698386,9.53382384 14.730246,9.67055576 L13.5288275,10.8493604 L10.7096217,5.36489101 C10.5953019,5.1435522 10.3764205,5.00399576 10.136145,5.00061491 C9.90023808,4.98948806 9.67294599,5.13028556 9.55344106,5.34832912 L2.08783293,18.9610514 C1.97028776,19.1757141 1.97094102,19.4397201 2.08848618,19.6539976 C2.20733786,19.8679756 2.42572934,20 2.66147292,20 L21.3257178,20 C21.7042794,20 22,19.6896036 22,19.3067114 C22,19.1127189 21.9013992,18.9579701 21.8023902,18.8117375 C20.3073741,16.6039556 15.7225003,9.77715959 15.7225003,9.77715959 Z M15.0791661,12.4772455 L19.0620703,17.9052045 C19.0620703,17.9052045 18.9464647,18.0134341 18.8493652,17.9052045 C17.7467047,16.6761499 15.4627904,13.8933517 15.4627904,13.8933517 C15.4279229,13.8557344 15.3801128,13.834037 15.3296896,13.8333951 C15.2807363,13.8330527 15.2322321,13.8536802 15.1967521,13.8906556 C15.1967521,13.8906556 15.0230946,14.0724422 14.9362658,14.1633355 C14.5127523,14.6066739 13.6657253,15.4933506 13.6657253,15.4933506 C13.6126892,15.5491561 13.5325837,15.5658464 13.4628895,15.5353331 C13.3931545,15.5051622 13.3479165,15.4337792 13.3485698,15.3548641 L13.3544083,13.8974173 C13.5197636,13.8974173 13.6825467,13.8476888 13.8065836,13.7267485 L15.0791661,12.4772455 Z M11.7497269,11.561377 L10.5171563,12.7009381 C10.4790633,12.736544 10.4279869,12.7537906 10.377727,12.7490403 C10.3266506,12.74429 10.2794937,12.7175428 10.2485049,12.6755603 L9.45843322,11.6246717 C9.42099351,11.5749432 9.36277211,11.5471689 9.30279509,11.5505925 C9.2420015,11.5539734 9.18651561,11.5881242 9.15491437,11.6416615 L5.74612307,16.9604534 C5.70868337,17.0223787 5.64139805,17.0575994 5.57166302,17.0507949 C5.501928,17.044076 5.4411344,16.9966585 5.41537164,16.9286135 L5.25520155,16.5033965 L10.1083,8.36921081 L11.7497269,11.561377 Z"></path>
            </g>
        </g>
    </g>
</svg>