<?xml version="1.0" encoding="UTF-8"?>
<svg width="24px" height="17px" viewBox="0 0 24 17" version="1.1" xmlns="http://www.w3.org/2000/svg" xmlns:xlink="http://www.w3.org/1999/xlink">
    <!-- Generator: sketchtool 47.1 (45422) - http://www.bohemiancoding.com/sketch -->
    <title>973E5238-1B3E-4754-AD84-C73EBB8ED645</title>
    <desc>Created with sketchtool.</desc>
    <defs></defs>
    <g id="Symbols" stroke="none" stroke-width="1" fill="none" fill-rule="evenodd">
        <g id="Icons-SVG" transform="translate(-27.000000, -63.000000)" fill="#DBDD3D">
            <g id="fun_icn" transform="translate(27.000000, 59.000000)">
                <path d="M22.7977393,12.2902106 C22.4133093,12.2902106 22.077836,12.4796442 21.8571299,12.7687796 C20.6051242,11.8324129 17.8507117,10.2812179 15.4566521,12.5436196 C15.4566521,12.5436196 13.032095,9.08064122 14.6685306,6.254924 C14.8659623,6.40281511 15.1075352,6.4925468 15.3707774,6.4925468 C16.0345009,6.4925468 16.574629,5.93504716 16.574629,5.2462734 C16.574629,4.55749963 16.0345009,4 15.3707774,4 C14.7062513,4 14.1653206,4.55749963 14.1653206,5.2462734 C14.1653206,5.38585602 14.1910028,5.517961 14.2327363,5.64341919 C12.5144388,6.32388446 9.54895099,8.01798544 9.10432846,11.7144323 C9.10432846,11.7144323 6.35232367,7.94154733 2.22391521,10.3900591 C2.01123476,10.0369483 1.63643562,9.79932555 1.20465418,9.79932555 C0.539325522,9.79932555 0,10.357656 0,11.0455989 C0,11.7335419 0.539325522,12.2918723 1.20465418,12.2918723 C1.86918027,12.2918723 2.40770322,11.7335419 2.40770322,11.0455989 C2.40770322,11.006549 2.39967755,10.9699917 2.39646728,10.9317726 C3.8362738,11.0480915 6.14445863,12.3658179 6.77928971,19.3657202 L6.85152081,19.9373442 C6.85152081,20.5247544 9.14525941,21 11.9735081,21 C14.803362,21 17.096298,20.5230927 17.096298,19.9373442 C17.096298,19.9373442 17.280086,15.1350374 21.5995056,13.6037828 C21.6324109,14.2609843 22.1516722,14.7860808 22.7961341,14.7860808 C23.4622654,14.7860808 23.9999857,14.2269195 23.9999857,13.5398074 C24.003196,12.8477103 23.4638705,12.2902106 22.7977393,12.2902106 L22.7977393,12.2902106 Z"></path>
            </g>
        </g>
    </g>
</svg>