<?xml version="1.0" encoding="UTF-8"?>
<svg width="17px" height="17px" viewBox="0 0 17 17" version="1.1" xmlns="http://www.w3.org/2000/svg" xmlns:xlink="http://www.w3.org/1999/xlink">
    <!-- Generator: sketchtool 47.1 (45422) - http://www.bohemiancoding.com/sketch -->
    <title>B9C1BE74-F047-4861-B412-CB1CF8373DB1</title>
    <desc>Created with sketchtool.</desc>
    <defs></defs>
    <g id="Symbols" stroke="none" stroke-width="1" fill="none" fill-rule="evenodd">
        <g id="Icons-SVG" transform="translate(-31.000000, -212.000000)" fill="#A04FB6">
            <g id="others_icn" transform="translate(27.000000, 208.000000)">
                <path d="M20.6656969,7.56391503 C21.1114344,8.00978398 21.1114344,8.73273948 20.6656969,9.17867169 L19.8586088,9.98601839 C19.4128713,10.4318873 18.6901069,10.4318873 18.2444327,9.98601839 L15.0160804,6.75650507 C14.5703429,6.31063612 14.5703429,5.58768062 15.0160804,5.14181167 L15.8231052,4.33440171 C16.268906,3.88853276 16.9915438,3.88853276 17.4372813,4.33440171 L20.6656969,7.56391503 Z M14.2089923,7.56391503 L17.4374712,10.7934284 C17.8832087,11.2393606 17.8832087,11.9623161 17.4374712,12.408185 L17.0339589,12.8118584 L17.0340222,12.8119216 L11.3842791,18.4635383 L11.372061,18.4513288 L11.1898031,18.6339022 C11.1898031,18.6339022 11.1880938,18.6354205 11.1856249,18.637698 C11.1853083,18.6380143 11.1853083,18.6380143 11.1848652,18.6383306 C11.1261172,18.6909011 10.4193059,19.2658241 6.48217973,20.4908882 C6.45913635,20.4980368 6.43634619,20.5051854 6.41311289,20.5123972 C6.33524652,20.5365632 6.25605073,20.560919 6.17571543,20.5855911 C6.11209291,20.605139 6.04714096,20.6248766 5.98187249,20.6447408 C5.92116204,20.6632133 5.86095804,20.6815592 5.79885487,20.7002847 C5.66439295,20.7408355 5.52746209,20.7818924 5.38616312,20.8237716 C5.07450773,20.9161338 4.36231534,21.1321728 4.11732116,20.8865906 C3.86289438,20.6316457 4.08788387,19.9273524 4.17999409,19.615029 C4.22196596,19.4727533 4.26311485,19.3349692 4.3037573,19.199589 C4.32167289,19.1399331 4.33920865,19.0821751 4.35687103,19.0237845 C4.37782531,18.9545129 4.39871628,18.8856841 4.41935404,18.818247 C4.44265064,18.7419533 4.46575733,18.6666718 4.48861079,18.5925923 C4.49766355,18.5633021 4.50658969,18.5345813 4.51557914,18.5056706 C5.79739883,14.3704386 6.36512695,13.7990583 6.36512695,13.7990583 L6.54314339,13.6206601 L6.54168736,13.6192051 L12.1913038,7.96758838 L12.5948162,7.56391503 C13.0404904,7.11798282 13.7632549,7.11798282 14.2089923,7.56391503 Z M10.5397772,17.9037349 L10.682089,17.7610796 L7.23286216,14.3106562 L7.09358898,14.4502117 C7.09023376,14.4552093 7.08586565,14.4619151 7.08137092,14.4689371 C7.07896529,14.4726696 7.07611652,14.4772244 7.07339437,14.4815895 C7.06997584,14.4870933 7.0663041,14.4931031 7.06237912,14.4995558 C7.05991019,14.5036046 7.05744126,14.5077166 7.0547191,14.5122082 C6.94285742,14.6997793 6.65285267,15.2526239 6.16932152,16.5959876 C6.11253605,16.7535094 6.05245866,16.9250121 5.99041879,17.1046755 L7.89339686,19.0082854 C8.07185644,18.9464786 8.24221286,18.8865065 8.39864196,18.8299505 C9.73731043,18.3456816 10.2888955,18.0556264 10.476851,17.9432102 C10.4822953,17.9399206 10.4873598,17.9368841 10.4922344,17.9339108 C10.497742,17.9305579 10.5029331,17.9273315 10.507681,17.9243582 C10.5123657,17.9214482 10.5171136,17.9184749 10.5210386,17.9159444 C10.5281289,17.9114528 10.5348393,17.9070878 10.5397772,17.9037349 Z"></path>
            </g>
        </g>
    </g>
</svg>