<?xml version="1.0" encoding="UTF-8"?>
<svg width="22px" height="12px" viewBox="0 0 22 12" version="1.1" xmlns="http://www.w3.org/2000/svg" xmlns:xlink="http://www.w3.org/1999/xlink">
    <!-- Generator: sketchtool 47.1 (45422) - http://www.bohemiancoding.com/sketch -->
    <title>277D4498-94FE-44E9-A795-C68848A6219D</title>
    <desc>Created with sketchtool.</desc>
    <defs></defs>
    <g id="Symbols" stroke="none" stroke-width="1" fill="none" fill-rule="evenodd">
        <g id="Icons-SVG" transform="translate(-28.000000, -304.000000)" fill="#5A8FFF">
            <g id="sport_icn" transform="translate(27.000000, 298.000000)">
                <path d="M21.2458439,8.6116607 L21.2458439,7.76552305 C21.2458439,6.79461166 20.4871057,6 19.5515883,6 L18.206995,6 C17.2714776,6 16.5127393,6.79461166 16.5127393,7.76552305 L16.5127393,10.136224 L7.48628666,10.136224 L7.48628666,7.76552305 C7.48628666,6.79461166 6.72754842,6 5.79203099,6 L4.44743774,6 C3.51192031,6 2.75318207,6.79461166 2.75318207,7.76552305 L2.75318207,8.6116607 C1.78941893,8.6116607 1,9.42849926 1,10.4367923 L1,13.5546201 C1,14.5629131 1.83276148,15.3797516 2.75318207,15.3797516 L2.75318207,16.2253841 C2.75318207,17.1962955 3.51192031,18 4.44743774,18 L5.79203099,18 C6.72754842,18 7.48628666,17.1962955 7.48628666,16.2253841 L7.48628666,13.8632709 L16.5132263,13.8632709 L16.5132263,16.2253841 C16.5132263,17.1962955 17.2719646,18 18.207482,18 L19.5525623,18 C20.4875927,18 21.2468179,17.1962955 21.2468179,16.2253841 L21.2468179,15.3797516 C22.2105811,15.3797516 23,14.5619028 23,13.5546201 L23,10.4367923 C22.998539,9.42849926 22.1657775,8.6116607 21.2458439,8.6116607 L21.2458439,8.6116607 Z"></path>
            </g>
        </g>
    </g>
</svg>