<?xml version="1.0" encoding="UTF-8"?>
<svg width="25px" height="24px" viewBox="0 0 25 24" version="1.1" xmlns="http://www.w3.org/2000/svg" xmlns:xlink="http://www.w3.org/1999/xlink">
    <!-- Generator: Sketch 47.1 (45422) - http://www.bohemiancoding.com/sketch -->
    <title>Shape</title>
    <desc>Created with Sketch.</desc>
    <defs></defs>
    <g id="Feed" stroke="none" stroke-width="1" fill="none" fill-rule="evenodd">
        <g id="UС_02-Feed---Connect" transform="translate(-616.000000, -30.000000)" fill-rule="nonzero" fill="#A34044">
            <g id="No-internet" transform="translate(616.000000, 30.000000)">
                <g id="001-signs">
                    <path d="M24.5002379,18.0507349 L15.7416854,1.98989842 C14.3110875,-0.663299472 10.6934245,-0.663299472 9.2679727,1.98989842 L0.504274151,18.0507349 C-0.926323733,20.7039328 0.854204569,24 3.74113051,24 L21.2325054,24 C24.1194313,24 25.9308358,20.6712445 24.5002379,18.0507349 Z M12.5160263,20.8695652 C11.6880858,20.8695652 11,20.1591529 11,19.3043478 C11,18.4495428 11.6880858,17.7391304 12.5160263,17.7391304 C13.3439669,17.7391304 14.0320527,18.4495428 13.9984875,19.3447778 C14.0376469,20.1591529 13.3104017,20.8695652 12.5160263,20.8695652 Z M13.8636364,11.1387796 C13.7981818,12.2794866 13.7272727,13.4147616 13.6618182,14.5554686 C13.6290909,14.9248404 13.6290909,15.2616205 13.6290909,15.6255604 C13.5963636,16.2285055 13.1218182,16.6956522 12.5163636,16.6956522 C11.9109091,16.6956522 11.4418182,16.2610971 11.4036364,15.658152 C11.3054545,13.8819083 11.2018182,12.1382562 11.1036364,10.3620124 C11.0709091,9.89486576 11.0381818,9.42228715 11,8.95514048 C11,8.18380528 11.4363636,7.54826853 12.1454545,7.34728682 C12.8545455,7.17889674 13.5581818,7.5156769 13.8636364,8.18380528 C13.9672727,8.41737861 14,8.65095195 14,8.92254885 C13.9672727,9.66672436 13.8963636,10.4054679 13.8636364,11.1387796 Z" id="Shape"></path>
                </g>
            </g>
        </g>
    </g>
</svg>