<svg xmlns="http://www.w3.org/2000/svg" width="18" height="18" viewBox="0 0 18 18">
    <path fill="#FFF" fill-rule="nonzero" d="M9 0a9 9 0 1 0 0 18A9 9 0 0 0 9 0zm2.454 12.475c-.442.497-1.082.789-1.918.877v1.273H8.47v-1.267c-1.394-.143-2.256-.953-2.589-2.43l1.648-.43c.153.929.658 1.393 1.516 1.393.401 0 .698-.1.887-.298.189-.2.283-.439.283-.72 0-.291-.094-.512-.283-.661-.19-.15-.61-.34-1.262-.572-.585-.203-1.043-.403-1.373-.603a2.268 2.268 0 0 1-.803-.832c-.205-.359-.309-.776-.309-1.25 0-.624.185-1.185.552-1.684.367-.497.945-.802 1.733-.913v-.983h1.066v.983c1.191.143 1.962.817 2.313 2.022l-1.468.602c-.287-.826-.728-1.24-1.328-1.24-.301 0-.543.093-.724.277a.92.92 0 0 0-.274.672c0 .268.088.473.264.617.175.143.551.32 1.127.532.633.23 1.13.45 1.489.655.36.205.647.49.862.851.214.363.322.786.322 1.27 0 .744-.222 1.363-.665 1.859z" />
</svg>
