<?xml version="1.0" encoding="UTF-8"?>
<svg width="18px" height="18px" viewBox="0 0 18 18" version="1.1" xmlns="http://www.w3.org/2000/svg" xmlns:xlink="http://www.w3.org/1999/xlink">
    <!-- Generator: Sketch 47.1 (45422) - http://www.bohemiancoding.com/sketch -->
    <title>Trophy_directs_icn</title>
    <desc>Created with Sketch.</desc>
    <defs></defs>
    <g id="Userpick-Dropdown-menu" stroke="none" stroke-width="1" fill="none" fill-rule="evenodd" >
        <g id="UС_02-Feed-(Userpick-dropdown)-768" transform="translate(-24.000000, -151.000000)" fill="#FFFFFF">
            <g id="DD-Menu" transform="translate(0.000000, 83.000000)">
                <g id="Trophy-Direct" transform="translate(0.000000, 51.000000)">
                    <path d="M40.9779375,26.26325 C41.605125,25.30925 41.9746875,24.153875 41.9746875,22.90625 C41.9746875,19.6443125 39.462,17 36.362625,17 C33.67275,17 31.4278125,18.992375 30.8799375,21.6501875 C30.48,21.555125 30.0654375,21.5 29.637375,21.5 C26.538,21.5 24.0253125,24.1443125 24.0253125,27.40625 C24.0253125,28.653875 24.394875,29.80925 25.0220625,30.76325 L24,35 L29.4016875,33.300125 C29.4804375,33.3035 29.5580625,33.3125 29.637375,33.3125 C32.32725,33.3125 34.5721875,31.320125 35.1200625,28.6623125 C35.52,28.7579375 35.935125,28.8125 36.362625,28.8125 C36.4419375,28.8125 36.5195625,28.8035 36.5983125,28.800125 L42,30.5 L40.9779375,26.26325 L40.9779375,26.26325 Z M32.9895,27.9138041 L32.9895,27.914942 C32.9696667,28.2756561 32.902,28.6215774 32.7911667,28.9470166 C32.7905833,28.9487234 32.7894167,28.9509992 32.7888333,28.9527061 C32.7526667,29.0585307 32.713,29.1615106 32.6680833,29.2627836 C32.66575,29.2679041 32.6628333,29.2730247 32.6610833,29.2781452 C32.6173333,29.3748667 32.5706667,29.4693123 32.5199167,29.5609132 C32.5140833,29.5722922 32.5076667,29.5825332 32.50125,29.5933433 C32.4534167,29.6786857 32.4026667,29.7617524 32.3484167,29.8419743 C32.3361667,29.8607496 32.32275,29.8778181 32.3099167,29.8960245 C32.25975,29.9677121 32.2084167,30.0376929 32.1541667,30.104829 C32.132,30.1321385 32.10925,30.1571723 32.0865,30.183344 C32.0380833,30.23967 31.9890833,30.295996 31.93775,30.3489083 C31.9021667,30.3853211 31.8648333,30.4194581 31.8280833,30.454164 C31.7860833,30.4939905 31.7446667,30.5343859 31.7009167,30.5719366 C31.6449167,30.6197283 31.5865833,30.6641064 31.52825,30.7084845 C31.50025,30.7295356 31.4728333,30.7528625 31.4436667,30.7733447 C31.3579167,30.8342223 31.2698333,30.8905483 31.1794167,30.9428917 C31.17475,30.9457364 31.17125,30.9485812 31.1671667,30.950857 C30.7710833,31.1790058 30.3289167,31.3275016 29.8593333,31.3770002 C29.8529167,31.3775692 29.8465,31.3775692 29.8400833,31.3781381 C29.7420833,31.3878103 29.6440833,31.3952066 29.54375,31.3963445 L29.5285833,31.3952066 L29.5256667,31.3952066 C29.5169167,31.3952066 29.50875,31.3963445 29.5,31.3963445 C29.37575,31.3963445 29.25325,31.3889482 29.1325,31.3758623 L28.9598333,31.368466 L26.903,32 L27.2325833,30.6675201 L26.8790833,30.1435175 C26.3336667,29.4915013 26,28.6369391 26,27.6981722 C26,25.6556433 27.5668333,24 29.5,24 C29.5023333,24 29.5040833,24.0005689 29.5064167,24.0005689 C29.50875,24.0005689 29.5110833,24 29.5128333,24 C29.6289167,24 29.7426667,24.0068274 29.8558333,24.0187753 C29.8663333,24.0199132 29.8768333,24.022758 29.8873333,24.0238959 C29.9876667,24.0358438 30.08625,24.0512055 30.1836667,24.0716876 C30.2355833,24.0824977 30.28575,24.0978593 30.3370833,24.1109452 C30.3901667,24.1246 30.44325,24.1376858 30.4951667,24.1541853 C30.5599167,24.1740986 30.6223333,24.1979945 30.6853333,24.2218903 C30.7133333,24.2327004 30.7425,24.2412346 30.7705,24.2526136 C30.7705,24.2537515 30.7710833,24.2543205 30.7710833,24.2554584 C32.0748333,24.7931157 33,26.1301472 33,27.6981722 C33,27.7709978 32.9935833,27.8421165 32.9895,27.9138041 L32.9895,27.9138041 Z M39.346737,24.8425432 L38.7873,25.6675201 L39.1186228,27 L37.0509341,26.368466 L36.6381,26.3861034 C36.5847365,26.3883792 36.5319595,26.3917929 36.4791824,26.3952066 L36.4639357,26.3963445 C36.028818,26.3923619 35.6142247,26.300761 35.2307112,26.1431619 C34.9568568,24.652514 34.1405713,23.3615675 33,22.4825404 C33.106727,20.5441292 34.6308118,19 36.4950155,19 C38.4278294,19 40,20.659057 40,22.6981722 C40,23.4708058 39.7742314,24.2121471 39.346737,24.8425432 L39.346737,24.8425432 Z" id="Trophy_directs_icn"></path>
                </g>
            </g>
        </g>
    </g>
</svg>