<svg xmlns="http://www.w3.org/2000/svg" width="18" height="13" viewBox="0 0 18 13">
    <path fill="#FFF" fill-rule="evenodd" d="M4 11.5c0-.828.675-1.5 1.498-1.5h11.004c.827 0 1.498.666 1.498 1.5 0 .828-.675 1.5-1.498 1.5H5.498A1.495 1.495 0 0 1 4 11.5zm0-5C4 5.672 4.675 5 5.498 5h11.004C17.329 5 18 5.666 18 6.5c0 .828-.675 1.5-1.498 1.5H5.498A1.495 1.495 0 0 1 4 6.5zm0-5C4 .672 4.675 0 5.498 0h11.004C17.329 0 18 .666 18 1.5c0 .828-.675 1.5-1.498 1.5H5.498A1.495 1.495 0 0 1 4 1.5zm-4 10c0-.828.666-1.5 1.5-1.5.828 0 1.5.666 1.5 1.5 0 .828-.666 1.5-1.5 1.5-.828 0-1.5-.666-1.5-1.5zm0-5C0 5.672.666 5 1.5 5 2.328 5 3 5.666 3 6.5 3 7.328 2.334 8 1.5 8 .672 8 0 7.334 0 6.5zm0-5C0 .672.666 0 1.5 0 2.328 0 3 .666 3 1.5 3 2.328 2.334 3 1.5 3 .672 3 0 2.334 0 1.5z" />
</svg>
