<svg xmlns="http://www.w3.org/2000/svg" xmlns:xlink="http://www.w3.org/1999/xlink" width="19" height="19" viewBox="0 0 19 19">
    <defs>
        <path id="a" d="M15 6a3 3 0 1 0 0-6 3 3 0 0 0 0 6z"/>
    </defs>
    <g fill="none" fill-rule="evenodd">
        <path fill="#FFF" d="M9 3.25c2.481 0 4.5 2.019 4.5 4.5v4.5h-9v-4.5c0-2.481 2.019-4.5 4.5-4.5m6.75 9v-4.5a6.75 6.75 0 0 0-13.5 0v4.5H1.125a1.125 1.125 0 1 0 0 2.25h15.75a1.125 1.125 0 1 0 0-2.25H15.75zM9 19a2.25 2.25 0 0 1-2.25-2.25v-1.125h4.5v1.125A2.25 2.25 0 0 1 9 19z" />
        <g transform="translate(0 1)">
            <use fill="#E95F3A" xlink:href="#a"/>
            <path stroke="#2E383C" d="M15 6.5a3.5 3.5 0 1 1 0-7 3.5 3.5 0 0 1 0 7z"/>
        </g>
    </g>
</svg>
